<svg id="Layer_1" data-name="Layer 1" xmlns="http://www.w3.org/2000/svg" viewBox="0 0 215 198"><defs><style>.cls-1{fill:#7650e3;}</style></defs><path class="cls-1" d="M128.74,98.34a69.56,69.56,0,0,0-16.17-10.28,186.2,186.2,0,0,0-17.68-7Q86,78,78.59,75.14a42.69,42.69,0,0,1-11.92-6.65,12.13,12.13,0,0,1-4.51-9.78,10.31,10.31,0,0,1,5.27-9.27Q72.69,46.19,82,46.18a40.93,40.93,0,0,1,18.06,4,61.06,61.06,0,0,1,16.3,12l28.59-28.34a71.84,71.84,0,0,0-26.84-18.06A95.14,95.14,0,0,0,82.47,9.31q-19.31,0-33.85,6.52T25.92,34.39q-8.15,12-8.15,29.09,0,13.29,4.52,22.32a45.07,45.07,0,0,0,11.91,15A77,77,0,0,0,50.5,111a156.3,156.3,0,0,0,17.8,7q8.91,2.9,16.3,6a41.66,41.66,0,0,1,11.92,7.27A13.52,13.52,0,0,1,101,141.72q0,6.78-6.14,10.66t-17.43,3.89a53.6,53.6,0,0,1-23.83-5.15A69.37,69.37,0,0,1,33.82,136.2L5.48,164.79a85.47,85.47,0,0,0,30,21.32q16.42,6.76,38.75,6.77,33.6,0,52.28-14.55t18.69-41.12q0-13.55-4.52-23.07A46.37,46.37,0,0,0,128.74,98.34Z"/><path class="cls-1" d="M203.21,149.5a23.68,23.68,0,0,0-17.8-7.28q-11,0-18.06,7.28a26.73,26.73,0,0,0,0,36.11q7,7.26,18.06,7.27a23.71,23.71,0,0,0,17.8-7.27,26.7,26.7,0,0,0,0-36.11Z"/></svg>