<?xml version="1.0" encoding="UTF-8"?><svg id="Buildings" xmlns="http://www.w3.org/2000/svg" xmlns:xlink="http://www.w3.org/1999/xlink" viewBox="0 0 1619.46 1747.9"><defs><style>.cls-1{fill:#d0e3ff;}.cls-1,.cls-2,.cls-3,.cls-4,.cls-5,.cls-6,.cls-7,.cls-8,.cls-9,.cls-10,.cls-11,.cls-12,.cls-13,.cls-14,.cls-15,.cls-16,.cls-17,.cls-18,.cls-19,.cls-20,.cls-21,.cls-22,.cls-23{stroke-linecap:round;stroke-linejoin:round;stroke-width:5px;}.cls-1,.cls-2,.cls-4,.cls-5,.cls-6,.cls-7,.cls-8,.cls-9,.cls-10,.cls-11,.cls-12,.cls-13,.cls-14,.cls-15,.cls-16,.cls-17,.cls-18,.cls-19,.cls-20,.cls-21,.cls-22,.cls-23{stroke:#00114f;}.cls-2,.cls-24{fill:#3ea136;}.cls-3{stroke:#1a5c2a;}.cls-3,.cls-25{fill:#1a5c2a;}.cls-4{fill:#cbe3f6;}.cls-5{fill:#cccefb;}.cls-6,.cls-26{fill:#88bd3b;}.cls-7{fill:#a1bffa;}.cls-8{fill:#1e2446;}.cls-9{fill:#2f36ca;}.cls-10{fill:#9c9cff;}.cls-11{fill:#fff;}.cls-12{fill:#f49b2f;}.cls-13{fill:#fcca60;}.cls-14{fill:#ee7b27;}.cls-15{fill:#ee7b26;}.cls-16,.cls-27{fill:#fdcc5e;}.cls-17{fill:#eb5533;}.cls-18,.cls-28{fill:#00114f;}.cls-29{clip-path:url(#clippath);}.cls-30,.cls-20{fill:#f49d2e;}.cls-31{fill:#fff7dc;}.cls-19{fill:none;}.cls-21{fill:#f49d2d;}.cls-32{isolation:isolate;}.cls-22{fill:#4766ff;}.cls-23{fill:#2d8723;}</style><clipPath id="clippath"><path class="cls-2" d="m1457.08,1256.33v98.6c0,.52-.02,1.04-.05,1.57-.61,8.84-7.65,15.48-8.97,23.84-.16.99-.23,1.99-.23,2.99v-98.6c0-1,.08-2,.23-2.99,1.32-8.36,8.36-15,8.97-23.84.04-.52.05-1.05.05-1.57Z"/></clipPath></defs><g id="Building_V2"><path class="cls-18" d="m1561.71,1450.18c22.9,5.61,45.76,17.99,53.41,42.47,7.86,25.09-10.78,44.56-30.86,55.6-55.86,30.71-147.14,24.77-218.5,42.6-57.01,14.26-100.36,43.63-159.89,54.03-19.29,3.37-39.21,4.56-59.32,4.56-23.83,0-47.92-1.66-71.55-3.32-63.44-4.45-126.95-8.62-190.51-9.16-1.63-.01-3.24-.02-4.82-.02-23.15,0-41.13,1.67-62.99,10.21-37.66,14.71-70.54,31.51-111.91,32.3-1.24.02-2.48.04-3.71.04-18.41,0-36.68-2.54-54.95-5.07-18.29-2.54-36.58-5.08-55-5.08-2.04,0-4.08.03-6.13.1-38.64,1.24-72.68,19.82-110.99,23.12-14.57,1.25-29.47,2.06-44.45,2.06-33.94,0-68.23-4.14-99.68-16.62-20.12-7.98-36.3-18.77-51.86-29.86l1283.72-197.95Z"/><g class="cls-32"><g class="cls-32"><path class="cls-24" d="m1457.08,1256.33v98.6c0,.52-.02,1.04-.05,1.57-.61,8.84-7.65,15.48-8.97,23.84-.16.99-.23,1.99-.23,2.99v-98.6c0-1,.08-2,.23-2.99,1.32-8.36,8.36-15,8.97-23.84.04-.52.05-1.05.05-1.57Z"/><g class="cls-29"><g class="cls-32"><path class="cls-2" d="m1457.08,1256.33v98.6c0,.52-.02,1.04-.05,1.57-.61,8.84-7.65,15.48-8.97,23.84-.16.99-.23,1.99-.23,2.99v-98.6c0-1,.08-2,.23-2.99,1.32-8.36,8.36-15,8.97-23.84.04-.52.05-1.05.05-1.57"/></g></g><path class="cls-19" d="m1457.08,1256.33v98.6c0,.52-.02,1.04-.05,1.57-.61,8.84-7.65,15.48-8.97,23.84-.16.99-.23,1.99-.23,2.99v-98.6c0-1,.08-2,.23-2.99,1.32-8.36,8.36-15,8.97-23.84.04-.52.05-1.05.05-1.57Z"/></g><path class="cls-6" d="m477.85,1188.94c39.92.08,79.84.47,119.77,1.13,147.35,2.47,294.69,8.88,441.82,19.32,63.38,4.5,127.71,5.75,189.36,22.77,13.97,3.86,28.32,5.31,42.88,5.31,43.57,0,88.99-13,131.78-13.35,13.7-.01,24.82.64,34.7,5.35,10.75,5.12,19.71,16.3,18.88,28.43-.61,8.84-7.65,15.48-8.97,23.84-1.44,9.07,4.03,18.59,10.55,24.27,7.56,6.58,17.2,9.89,26.62,12.88,15.43,4.88,31,9.29,46.68,13.19,22.9,5.71,45.76,18.31,53.41,43.22,7.86,25.53-10.78,45.35-30.86,56.58-55.86,31.25-147.14,25.21-218.5,43.36-57.01,14.51-100.36,44.4-159.89,54.98-19.29,3.43-39.21,4.64-59.32,4.64-23.83,0-47.92-1.69-71.55-3.38-63.44-4.53-126.95-8.77-190.51-9.32-1.63-.01-3.24-.02-4.82-.02-23.15,0-41.13,1.7-62.99,10.39-37.66,14.97-70.54,32.07-111.91,32.87-1.24.02-2.48.04-3.71.04-18.41,0-36.68-2.58-54.95-5.16-18.29-2.58-36.58-5.17-55-5.17-2.04,0-4.08.03-6.13.1-38.64,1.26-72.68,20.17-110.99,23.53-14.57,1.28-29.47,2.1-44.45,2.1-33.94,0-68.23-4.22-99.68-16.91-54.31-21.92-79.9-64.66-142.26-78.1-47.2-10.17-171.17-12.83-153.61-80.77,5.12-19.81,23.09-35.34,41.38-48.65,18.27-13.29,38.18-26.03,49.62-43.88,11.44-17.85,13.26-39.19,24.9-56.95,26.31-40.14,90.08-47.97,144.79-51.21,30.08-1.78,60.09-4.58,90.05-7.32,41.08-3.75,82.05-7.39,122.93-8.08Z"/><g class="cls-32"><path class="cls-2" d="m1581.23,1506.16c.47-.79.91-1.59,1.34-2.4.07-.14.15-.28.22-.42.4-.79.78-1.58,1.13-2.39.07-.15.13-.31.19-.46.35-.83.68-1.67.97-2.52.03-.08.05-.16.08-.25.28-.83.53-1.67.76-2.52.03-.11.06-.21.09-.32.22-.87.4-1.75.56-2.64.03-.17.06-.34.09-.51.15-.88.26-1.78.34-2.68.01-.15.02-.3.03-.45.07-.95.12-1.91.12-2.88v-98.6c0,.97-.05,1.93-.12,2.88-.01.15-.02.3-.03.45-.08.9-.2,1.8-.34,2.68-.03.17-.06.34-.09.51-.16.89-.34,1.77-.56,2.64-.03.11-.06.21-.09.32-.22.85-.48,1.69-.76,2.52-.03.08-.05.16-.08.25-.29.85-.62,1.69-.97,2.52-.06.15-.13.31-.19.46-.35.81-.73,1.61-1.13,2.39-.07.14-.15.28-.22.42-.42.81-.87,1.61-1.34,2.4-.02.04-.05.08-.07.11-.47.77-.96,1.53-1.47,2.28-.08.12-.17.25-.25.37-.3.44-.61.87-.93,1.29-.07.1-.14.2-.22.3-.4.53-.8,1.05-1.22,1.56-.12.14-.24.28-.36.43-.3.37-.61.74-.93,1.1-.16.18-.32.37-.49.55-.28.32-.57.63-.85.94-.18.19-.36.38-.54.57-.29.3-.58.6-.87.9-.18.18-.36.37-.55.55-.32.31-.64.62-.96.93-.17.16-.33.32-.5.47-.42.39-.85.78-1.28,1.17-.07.06-.14.13-.21.19-.5.45-1.02.88-1.53,1.32-.07.06-.14.11-.21.17-.97.81-1.96,1.59-2.97,2.35-.1.08-.21.15-.31.23-.98.73-1.97,1.44-2.98,2.13-.11.08-.22.15-.34.23-1.02.69-2.06,1.36-3.1,2.01-.08.05-.17.11-.25.16-1.12.69-2.25,1.35-3.38,1.99-1.65.92-3.33,1.81-5.04,2.67-.56.28-1.14.55-1.71.82-1.16.56-2.33,1.12-3.52,1.66-.69.31-1.38.61-2.08.91-1.1.48-2.21.95-3.33,1.41-.74.3-1.49.59-2.24.89-1.11.43-2.23.86-3.36,1.27-.76.28-1.52.56-2.29.83-1.16.41-2.34.81-3.52,1.2-.75.25-1.49.5-2.25.74-1.28.41-2.58.8-3.88,1.18-.67.2-1.34.41-2.01.6-1.74.5-3.5.98-5.28,1.45-.24.06-.48.13-.72.2-53.67,13.95-121.54,13.37-177.27,27.54-57.01,14.51-100.36,44.4-159.89,54.98-19.29,3.43-39.21,4.64-59.32,4.64-23.83,0-47.92-1.69-71.55-3.38-63.44-4.53-126.95-8.77-190.51-9.32-1.63-.01-3.24-.02-4.82-.02-23.15,0-41.13,1.7-62.99,10.39-37.66,14.97-70.54,32.07-111.91,32.87-1.24.02-2.48.04-3.71.04-18.41,0-36.68-2.58-54.95-5.16-18.29-2.58-36.58-5.17-55-5.17-2.04,0-4.08.03-6.13.1-38.64,1.26-72.68,20.17-110.99,23.53-14.57,1.28-29.47,2.1-44.45,2.1-33.94,0-68.23-4.22-99.68-16.91-54.31-21.92-79.9-64.66-142.26-78.1-44.11-9.51-155.3-12.45-155.3-68.27v98.6c0,55.82,111.19,58.77,155.3,68.27,62.36,13.45,87.95,56.19,142.26,78.1,31.45,12.69,65.74,16.91,99.68,16.91,14.97,0,29.88-.82,44.45-2.1,38.3-3.36,72.34-22.27,110.99-23.53,2.04-.07,4.09-.1,6.13-.1,18.42,0,36.72,2.59,55,5.17,18.27,2.58,36.55,5.16,54.95,5.16,1.24,0,2.47-.01,3.71-.04,41.38-.8,74.26-17.9,111.91-32.87,21.87-8.69,39.85-10.39,62.99-10.39,1.58,0,3.19,0,4.82.02,63.56.55,127.07,4.79,190.51,9.32,23.62,1.69,47.72,3.38,71.55,3.38,20.11,0,40.03-1.21,59.32-4.64,59.53-10.58,102.88-40.47,159.89-54.98,55.71-14.17,123.54-13.59,177.2-27.52h0s.05-.01.07-.02c.24-.06.48-.13.72-.2,1.77-.47,3.54-.95,5.28-1.45.68-.19,1.34-.4,2.01-.6,1.3-.39,2.6-.78,3.88-1.18.76-.24,1.5-.49,2.25-.74,1.18-.39,2.36-.79,3.52-1.2.77-.27,1.53-.55,2.29-.83,1.13-.41,2.25-.84,3.36-1.27.75-.29,1.5-.59,2.24-.89,1.12-.46,2.23-.93,3.33-1.41.69-.3,1.39-.6,2.08-.91,1.19-.54,2.36-1.1,3.52-1.66.57-.28,1.15-.54,1.71-.82,1.71-.86,3.39-1.74,5.04-2.67,1.13-.63,2.26-1.3,3.38-1.99.08-.05.17-.11.25-.16,1.04-.65,2.08-1.32,3.1-2.01.11-.08.23-.15.34-.23,1.01-.69,2-1.4,2.98-2.13.1-.08.21-.15.31-.23,1.01-.76,2-1.54,2.97-2.35.04-.03.08-.06.12-.09.03-.02.06-.05.09-.07.52-.43,1.03-.87,1.53-1.32.07-.06.14-.13.21-.19.43-.39.86-.77,1.28-1.17.17-.16.33-.32.5-.47.32-.31.64-.61.96-.93.18-.18.36-.37.55-.55.29-.3.58-.6.87-.9.18-.19.36-.38.54-.57.29-.31.57-.63.85-.94.16-.18.33-.37.49-.55.31-.36.62-.73.93-1.1.12-.14.24-.28.36-.43.42-.51.82-1.03,1.22-1.56.07-.1.15-.2.22-.3.32-.43.63-.86.93-1.29.04-.05.07-.1.11-.15.05-.07.09-.15.14-.22.51-.75,1.01-1.51,1.47-2.28.02-.04.05-.08.07-.11Z"/><path class="cls-23" d="m1513.17,1447.71v98.6c-53.66,13.93-121.5,13.36-177.2,27.52-.53.14-1.06.27-1.59.41v-98.6c.53-.14,1.06-.27,1.59-.41,55.7-14.17,123.55-13.59,177.2-27.52"/><path class="cls-6" d="m1334.38,1475.64v98.6c-49.56,12.92-88.92,37.32-137.94,50.1v-98.6c49.02-12.78,88.38-37.18,137.94-50.1"/><path class="cls-2" d="m1196.44,1525.74v98.6c-6.6,1.72-13.37,3.23-20.36,4.47-19.29,3.43-39.21,4.64-59.32,4.64-1.44,0-2.88,0-4.32-.02v-98.6c1.44.01,2.88.02,4.32.02,20.11,0,40.03-1.21,59.32-4.64,6.99-1.24,13.76-2.75,20.36-4.47"/><path class="cls-23" d="m1112.43,1534.83v98.6c-22.42-.19-45.03-1.78-67.23-3.36-63.44-4.53-126.95-8.77-190.51-9.32-.08,0-.15,0-.22,0v-98.6c.07,0,.15,0,.22,0,63.56.55,127.07,4.79,190.51,9.32,22.2,1.59,44.81,3.18,67.23,3.36"/><path class="cls-2" d="m854.47,1522.14v98.6c-1.56-.01-3.09-.02-4.59-.02-16.94,0-31.11.91-46.06,4.8v-98.6c14.95-3.89,29.12-4.8,46.06-4.8,1.51,0,3.04,0,4.59.02"/><path class="cls-6" d="m803.82,1526.93v98.6c-5.48,1.43-11.07,3.26-16.93,5.59-24.98,9.93-47.86,20.8-72.51,27.22v-98.6c24.65-6.43,47.53-17.29,72.51-27.22,5.87-2.33,11.45-4.16,16.93-5.59"/><path class="cls-2" d="m714.37,1559.74v98.6c-12.51,3.26-25.48,5.38-39.41,5.65-1.24.02-2.48.04-3.71.04-.56,0-1.12,0-1.67,0v-98.6c.56,0,1.12,0,1.67,0,1.24,0,2.47-.01,3.71-.04,13.93-.27,26.9-2.39,39.41-5.65"/><path class="cls-23" d="m669.58,1565.41v98.6c-17.84-.15-35.56-2.65-53.28-5.16-17.73-2.5-35.47-5.01-53.33-5.16v-98.6c17.86.15,35.6,2.66,53.33,5.16,17.72,2.5,35.44,5.01,53.28,5.16"/><path class="cls-2" d="m562.97,1555.09v98.6c-.56,0-1.12,0-1.67,0-2.04,0-4.08.03-6.13.1-13.4.44-26.25,3-38.92,6.3v-98.6c12.67-3.3,25.52-5.86,38.92-6.3,2.04-.07,4.09-.1,6.13-.1.56,0,1.12,0,1.67,0"/><path class="cls-6" d="m516.25,1561.48v98.6c-13.4,3.49-26.59,7.8-40.01,11.3v-98.6c13.42-3.5,26.61-7.82,40.01-11.3"/><path class="cls-6" d="m476.24,1572.79v98.6c-10.47,2.73-21.09,4.97-32.05,5.93-14.57,1.28-29.47,2.1-44.45,2.1-1.11,0-2.21,0-3.32-.01v-98.6c1.11,0,2.21.01,3.32.01,14.97,0,29.88-.82,44.45-2.1,10.96-.96,21.58-3.2,32.05-5.93"/><path class="cls-23" d="m396.42,1580.8v98.6c-32.86-.27-65.94-4.62-96.36-16.9-54.31-21.92-79.9-64.66-142.26-78.1-44.11-9.51-155.3-12.45-155.3-68.27v-98.6c0,55.82,111.19,58.77,155.3,68.27,62.36,13.45,87.95,56.19,142.26,78.1,30.43,12.28,63.51,16.63,96.36,16.9"/></g></g><circle class="cls-16" cx="1207.82" cy="93.28" r="90.78"/><path class="cls-18" d="m947.25,1306.1c-11.46.81-25.09,10.14-12.41,18.94,7.15,4.97,15.99,3.49,24.44,4.28,7.18.67,9.92,6.42,16.28,8.47,9.53,3.08,21.08,3.9,31.37,2.22,11.55-1.88,19.69-5.21,29.02.88,12.99,8.49,32.05,10.62,50.38,9.3,6.68-.48,20.33-2.38,28.48-6.02,5.14-2.3,12.37-2.01,17.2.66,29.43,16.23,80.62,7.94,110.17-6.82,5.32-2.66,13.18-2.82,19.25-.56,7.13,2.66,16.92,4.7,19.3,5.02,8.58,1.17,17.42,1.94,26.1,1.42,12.24-.73,23.02-4.05,28.2-10.6,2.07-2.62,3.34-5.78,2.7-8.63-.88-3.94,2.97-7.59,8.9-9.46,8.25-2.59,14.39-7,15.64-12.94,1.77-8.44-5.98-15.73-20.54-16.87-8.87-.7-27.22-.58-31.07,5.32,14.3-21.94-16.57-42.42-53.86-45.51-31.96-2.65-49.72,11.07-57.48,26.99,1.2-4.74-6.5-8.75-13.92-11.03-4.91-1.51-10.09-2.69-15.41-3.56-18.24-2.97-38.23-2.24-55.31,1.87-5.53,1.33-10.91,3.06-14.85,5.65-3.94,2.59-6.3,6.17-5.13,9.64-1.1-3.27-18.2-4.6-22.68-5.07-14.11-1.48-28.52-1.17-39.82,4.27-10.23,4.92-15.58,13.05-13.49,20.82.31,1.16-.8,2.34-2.71,2.7-7.09,1.31-18.39-4.64-25.61-5.56-7.23-.92-15.39-.3-20.56,2.65-5.74,3.26-6.55,8.59-4.63,13.21-5.75-1.26-11.92-2.1-17.94-1.68Z"/><path class="cls-2" d="m1171.78,1163.99c-11.52-1.39-21.53-3.51-33.21-1.92-10.88,1.48-21.68,4.93-30.94,11.59-5.37,3.86-10.27,8.91-16.28,11.56-6.05,2.67-12.99,2.93-19.42,3.11-13.38.38-27.37-.45-38.28,9.74-7.62,7.12-11.25,15.24-16.29,24.28-2.52,4.52-6.67,7.74-11.2,9.47-9.59,3.67-19.39-1.73-28.65,2.54-6.83,3.15-8.3,8.47-11.81,14.81-7.97,14.42-26.83,8.54-32.82,24.04-5.34,13.8,5.84,25.34,16.65,29.52,4.38,1.69,10.8.81,14.05,3.36,4.56,3.56,6.06,11.62,12.28,15.36,9.48,5.7,21.02,7.02,31.34,3.59,8.88-2.95,16.97-3.38,25.85.56,5.99,2.66,9.58,7.7,15.09,11.06,11.6,7.09,25.39,8.25,38.3,6.19,14.94-2.38,27.41-13.35,42.98-7.89,9.68,3.4,18.78,9.03,28.76,11.31,9.87,2.26,20.14,1.79,30-.3,19.93-4.22,39.12-14.94,54.38-29.72,5.37-5.2,13.23-5.67,19.27-1.47,27.3,19.3,76.92,17.86,76.56-26.08-1.28-21.2,22.76-17.99,24.94-43.39,2.02-17.16-8.23-31.38-22.97-36.04-4.4-1.39-9.02-1.81-13.42-3.2-3.77-1.19-8.08-3.36-10.29-7.16-2.03-3.5-1.95-8.14-3.01-12.19-2.24-8.53-6.27-16.4-11.49-23.13-10.9-14.05-26.78-23.05-43.32-25.33-19.4-2.37-37.9,1.9-53.8,15.17-3.36,2.81-6.55,5.96-10.37,7.95-6.9,3.59-14.83,3.54-22.91,2.56Z"/><path class="cls-26" d="m1146.7,1182.05c-4.82.9-9.42,2.86-13.94,4.94-8.04,3.71-15.92,7.87-23.59,12.46-3.41,2.04-6.84,4.19-10.64,5.03-2.76.61-5.61.51-8.43.38-5.47-.25-10.93-.55-16.39-.93-5.96-.41-12.22-.83-17.65,1.94-2.26,1.15-4.38,2.96-5.3,5.52-.92,2.56-.25,5.93,1.93,7.26,1.73,1.05,3.86.63,5.79.17,9.27-2.22,18.63-4.68,28.1-4.14,7.43.43,14.73,2.7,22.17,2.56,6.85-.14,13.65-2.38,19.45-6.42,3.54-2.46,6.71-5.58,10.42-7.71,6.63-3.82,14.42-4.21,21.87-3.69,4.22.29,8.94.68,12.15-2.37,3.83-3.64,4.21-11.23-.92-13.32-7.16-2.91-17.6-3.06-25.02-1.67Z"/><path class="cls-25" d="m1258.62,1281.98c-4.64-1.26-9.26-2.96-14.04-3.08-7.61-.19-14.82,3.63-21.32,8.03-5.34,3.62-9.35,9.72-14.4,13-5.34,3.47-13.64,6.71-19.59,9.29-9.62,4.18-20.4,2.97-30.61,1.18-3.45-.6-7.09-1.25-10.36.14-3.26,1.39-5.81,5.65-4.36,9.17.8,1.95,2.57,3.17,4.3,4.13,14.71,8.15,32.43,5.14,48.04-.57,8.51-3.11,15.87-7.26,22.81-13.5,5.95-5.35,12.68-13.15,20.28-15.39,2.88-.85,5.9-.82,8.87-.74,3.87.11,7.78.29,11.52,1.44,12.65,3.89,23.58,13.09,37.16,13.15,8.66.04,17.61-3.75,22.86-11.38,2.03-2.95,3.49-6.83,2.39-10.33-3.3-10.48-16.97-3.12-23.12-1.97-12.77,2.38-27.94.81-40.43-2.58Z"/><path class="cls-25" d="m1057.52,1312.84c-12.02-2.29-21.82-12.77-33.87-14.82-7.17-1.21-14.44.69-21.49,2.57-3.25.87-9.51,6.27-4.65,10.03,1.96,1.52,4.59,1.24,6.97.9,14.1-2.03,29.29-3.77,41.76,3.79,4.16,2.52,8.19,5.28,12.37,7.75,7.85,4.65,17.27,5.95,25.91,3.57,6.13-1.69,11.93-4.73,18-6.7,4.36-1.42,8.69-5.46,1.87-8.47-15.04-6.62-31.36,4.32-46.86,1.37Z"/><path class="cls-25" d="m982.39,1309.83c-3.61-.92-8.09-5.34-5.14-9.52,2.39-3.39,8.08-2.59,10.38.56,1.61,2.19,1.63,5.77-.24,7.69-1.3,1.34-3.27,1.7-5,1.26Z"/><polygon class="cls-18" points="805.18 1442.65 728.56 1400.97 757.43 1396.91 834.06 1438.59 805.18 1442.65"/><polygon class="cls-18" points="455.93 1453.52 182.53 1304.79 848.84 1211.14 1122.25 1359.87 455.93 1453.52"/><polygon class="cls-11" points="1206.53 1311.23 1206.46 1348.48 540.15 1442.13 540.22 1404.88 1206.53 1311.23"/><polygon class="cls-1" points="540.15 1442.13 266.74 1293.4 266.81 1256.14 540.22 1404.88 540.15 1442.13"/><polygon class="cls-7" points="540.22 1404.88 266.81 1256.14 933.13 1162.5 1206.53 1311.23 540.22 1404.88"/><polygon class="cls-11" points="1177.02 1035.82 1176.53 1299.88 542.32 1389.01 542.81 1124.95 1177.02 1035.82"/><polygon class="cls-1" points="542.32 1389.01 296.26 1255.15 296.75 991.09 542.81 1124.95 542.32 1389.01"/><polygon class="cls-11" points="542.81 1124.95 296.75 991.09 930.95 901.96 1177.02 1035.82 542.81 1124.95"/><polygon class="cls-16" points="1027.13 1333.51 1026.99 1411.68 998.11 1415.73 998.26 1337.57 1027.13 1333.51"/><polygon class="cls-20" points="998.11 1415.73 943.43 1385.99 943.5 1348.37 921.64 1335.89 921.64 1295.89 998.26 1337.57 998.11 1415.73"/><polygon class="cls-14" points="998.26 1337.57 921.64 1295.89 950.51 1291.83 1027.13 1333.51 998.26 1337.57"/><path class="cls-18" d="m296.75,1001.14s224.45,116.98,246.07,147.29v-18.55l-246.07-133.86v5.12Z"/><path class="cls-18" d="m1177.02,1044.29s-612.58,73.82-634.2,104.13v-18.55s634.2-90.7,634.2-90.7v5.12Z"/><polygon class="cls-11" points="1206.53 997.58 1206.46 1034.83 540.15 1128.47 540.22 1091.22 1206.53 997.58"/><polygon class="cls-1" points="540.15 1128.47 266.74 979.74 266.81 942.49 540.22 1091.22 540.15 1128.47"/><polygon class="cls-7" points="540.22 1091.22 266.81 942.49 933.13 848.85 1206.53 997.58 540.22 1091.22"/><polygon class="cls-11" points="1177.02 722.17 1176.53 986.23 542.32 1075.36 542.81 811.3 1177.02 722.17"/><polygon class="cls-1" points="542.32 1075.36 296.26 941.5 296.75 677.44 542.81 811.3 542.32 1075.36"/><polygon class="cls-11" points="542.81 811.3 296.75 677.44 930.95 588.31 1177.02 722.17 542.81 811.3"/><polygon class="cls-11" points="1206.53 683.93 1206.46 721.18 540.15 814.82 540.22 777.58 1206.53 683.93"/><polygon class="cls-1" points="540.15 814.82 266.74 666.09 266.81 628.85 540.22 777.58 540.15 814.82"/><polygon class="cls-7" points="540.22 777.58 266.81 628.85 933.13 535.2 1206.53 683.93 540.22 777.58"/><polygon class="cls-11" points="1177.02 408.51 1176.53 672.58 542.32 761.71 542.81 497.64 1177.02 408.51"/><polygon class="cls-1" points="542.32 761.71 296.26 627.86 296.75 363.79 542.81 497.64 542.32 761.71"/><polygon class="cls-11" points="542.81 497.64 296.75 363.79 930.95 274.65 1177.02 408.51 542.81 497.64"/><path class="cls-18" d="m296.75,371.42s224.45,116.98,246.07,147.29v-18.55l-246.07-133.86v5.12Z"/><path class="cls-18" d="m1177.02,414.58s-613.07,73.82-634.69,104.13v-18.55s634.69-90.7,634.69-90.7v5.12Z"/><path class="cls-18" d="m296.75,687.53s224.45,116.98,246.07,147.29v-18.55l-246.07-133.86v5.12Z"/><path class="cls-18" d="m1177.02,730.69s-613.07,73.82-634.69,104.13v-18.55s634.69-90.7,634.69-90.7v5.12Z"/><polygon class="cls-22" points="1206.53 370.28 1206.46 407.52 540.15 501.17 540.22 463.92 1206.53 370.28"/><polygon class="cls-9" points="540.15 501.17 266.74 352.44 266.81 315.19 540.22 463.92 540.15 501.17"/><polygon class="cls-22" points="540.22 463.92 266.81 315.19 933.13 221.55 1206.53 370.28 540.22 463.92"/><polygon class="cls-22" points="1143.48 321.65 1143.41 358.9 548.52 442.51 548.59 405.25 1143.48 321.65"/><polygon class="cls-9" points="548.52 442.51 329.8 323.52 329.87 286.27 548.59 405.25 548.52 442.51"/><polygon class="cls-22" points="548.59 405.25 329.87 286.27 924.75 202.66 1143.48 321.65 548.59 405.25"/><polygon class="cls-9" points="383.22 295.94 921.56 220.28 1090.12 311.98 551.78 387.64 383.22 295.94"/><polygon class="cls-9" points="921.56 220.28 921.56 246.23 1051.58 317.4 1090.12 311.98 921.56 220.28"/><polygon class="cls-18" points="921.56 220.28 921.56 246.23 419.54 315.19 383.22 295.94 921.56 220.28"/><polygon class="cls-16" points="948.93 1130.56 948.53 1349.19 801.26 1370.15 801.67 1149 948.93 1130.56"/><polygon class="cls-18" points="823.06 1172.33 927.46 1159.27 927.14 1351.75 822.73 1366.59 823.06 1172.33"/><polygon class="cls-14" points="916.14 1161.48 915.81 1344.06 927.14 1351.75 927.46 1159.27 916.14 1161.48"/><polygon class="cls-20" points="801.26 1367.63 786.91 1359.82 787.31 1141.19 801.67 1149 801.26 1367.63"/><polygon class="cls-14" points="801.67 1149 787.31 1141.19 934.58 1122.75 948.93 1130.56 801.67 1149"/><line class="cls-11" x1="915.81" y1="1344.06" x2="822.75" y2="1356.44"/><polygon class="cls-18" points="718.89 528.42 637.37 539.87 637.12 678.35 718.64 666.9 718.89 528.42"/><polygon class="cls-18" points="901.02 502.82 819.51 514.28 819.25 652.76 900.77 641.3 901.02 502.82"/><polygon class="cls-18" points="1083.15 477.22 1001.63 488.68 1001.38 627.16 1082.9 615.7 1083.15 477.22"/><polygon class="cls-18" points="346.4 445.61 345.4 582.29 381.79 602.27 382.8 465.58 346.4 445.61"/><polygon class="cls-18" points="475.59 653.75 476.59 517.07 440.2 497.09 439.19 633.78 475.59 653.75"/><polygon class="cls-18" points="346.4 756.77 345.4 893.45 381.79 913.43 382.8 776.74 346.4 756.77"/><polygon class="cls-18" points="440.2 808.25 439.19 944.94 475.59 964.92 476.59 828.23 440.2 808.25"/><polygon class="cls-18" points="346.4 1069.22 345.4 1205.91 381.79 1225.88 382.8 1089.2 346.4 1069.22"/><polygon class="cls-18" points="440.2 1120.71 439.19 1257.39 475.59 1277.37 476.59 1140.69 440.2 1120.71"/><polygon class="cls-16" points="998.51 1395.45 998.47 1415.91 860.72 1435.27 860.76 1414.8 998.51 1395.45"/><polygon class="cls-11" points="860.72 1435.27 806.04 1405.52 806.08 1385.06 860.76 1414.8 860.72 1435.27"/><polygon class="cls-14" points="860.76 1414.8 806.08 1385.06 943.83 1365.7 998.51 1395.45 860.76 1414.8"/><polygon class="cls-16" points="976.53 1363.38 976.5 1383.84 833.17 1403.99 833.2 1383.52 976.53 1363.38"/><polygon class="cls-11" points="833.17 1403.99 805.83 1389.11 805.86 1368.65 833.2 1383.52 833.17 1403.99"/><polygon class="cls-14" points="833.2 1383.52 805.86 1368.65 949.19 1348.51 976.53 1363.38 833.2 1383.52"/><polygon class="cls-16" points="862.02 1356.53 861.87 1434.69 833 1438.75 833.14 1360.59 862.02 1356.53"/><polygon class="cls-20" points="833 1438.75 778.32 1409.01 778.39 1371.39 756.52 1358.91 756.52 1318.91 833.14 1360.59 833 1438.75"/><polygon class="cls-14" points="833.14 1360.59 756.52 1318.91 785.39 1314.85 862.02 1356.53 833.14 1360.59"/><polygon class="cls-18" points="718.89 839.58 637.37 851.04 637.12 989.52 718.64 978.06 718.89 839.58"/><polygon class="cls-18" points="901.02 813.99 819.51 825.44 819.25 963.92 900.77 952.47 901.02 813.99"/><polygon class="cls-18" points="1083.15 788.39 1001.63 799.85 1001.38 938.33 1082.9 926.87 1083.15 788.39"/><polygon class="cls-18" points="718.89 1152.57 637.37 1164.03 637.12 1302.51 718.64 1291.05 718.89 1152.57"/><polygon class="cls-18" points="1083.15 1101.38 1001.63 1112.84 1001.38 1251.32 1082.9 1239.86 1083.15 1101.38"/><polygon class="cls-20" points="1001.38 627.16 1001.36 639.34 1095.67 626.08 1082.9 615.7 1001.38 627.16"/><polygon class="cls-14" points="1083.15 477.22 1082.9 615.7 1095.67 626.08 1095.95 475.43 1083.15 477.22"/><polygon class="cls-14" points="718.64 666.9 731.41 677.28 731.69 526.62 718.89 528.42 718.64 666.9"/><polygon class="cls-20" points="637.12 678.35 637.1 690.53 731.41 677.28 718.64 666.9 637.12 678.35"/><polygon class="cls-14" points="900.77 641.3 913.54 651.68 913.82 501.02 901.02 502.82 900.77 641.3"/><polygon class="cls-20" points="819.25 652.76 819.23 664.93 913.54 651.68 900.77 641.3 819.25 652.76"/><polygon class="cls-20" points="637.12 989.52 637.1 1001.7 731.41 988.44 718.64 978.06 637.12 989.52"/><polygon class="cls-14" points="718.64 978.06 731.41 988.44 731.69 837.78 718.89 839.58 718.64 978.06"/><polygon class="cls-14" points="900.77 952.47 913.54 962.84 913.82 812.19 901.02 813.99 900.77 952.47"/><polygon class="cls-20" points="819.25 963.92 819.23 976.1 913.54 962.84 900.77 952.47 819.25 963.92"/><polygon class="cls-14" points="1083.15 788.39 1082.9 926.87 1095.67 937.25 1095.95 786.59 1083.15 788.39"/><polygon class="cls-20" points="1001.38 938.33 1001.36 950.5 1095.67 937.25 1082.9 926.87 1001.38 938.33"/><polygon class="cls-20" points="637.12 1302.51 637.1 1314.69 731.41 1301.43 718.64 1291.05 637.12 1302.51"/><polygon class="cls-14" points="718.64 1291.05 731.41 1301.43 731.69 1150.78 718.89 1152.57 718.64 1291.05"/><polygon class="cls-20" points="1001.38 1251.32 1001.36 1263.49 1095.67 1250.24 1082.9 1239.86 1001.38 1251.32"/><polygon class="cls-14" points="1083.15 1101.38 1082.9 1239.86 1095.67 1250.24 1095.95 1099.58 1083.15 1101.38"/><polygon class="cls-14" points="346.4 756.77 334.22 750.08 333.11 900.65 345.4 893.45 346.4 756.77"/><polygon class="cls-20" points="333.11 900.65 381.69 927.31 381.79 913.43 345.4 893.45 333.11 900.65"/><polygon class="cls-20" points="475.59 964.92 439.19 944.94 426.91 952.14 475.49 978.8 475.59 964.92"/><polygon class="cls-14" points="440.2 808.25 428.02 801.57 426.91 952.14 439.19 944.94 440.2 808.25"/><polygon class="cls-14" points="346.4 1069.22 334.22 1062.54 333.11 1213.1 345.4 1205.91 346.4 1069.22"/><polygon class="cls-20" points="333.11 1213.1 381.69 1239.77 381.79 1225.88 345.4 1205.91 333.11 1213.1"/><polygon class="cls-20" points="426.91 1264.59 475.49 1291.25 475.59 1277.37 439.19 1257.39 426.91 1264.59"/><polygon class="cls-14" points="440.2 1120.71 428.02 1114.02 426.91 1264.59 439.19 1257.39 440.2 1120.71"/><polygon class="cls-16" points="676.7 617.02 637.22 622.61 637.28 608.57 676.7 603.15 676.7 534.49 691.07 532.29 691.07 600.84 731.59 595.45 731.54 609.11 691.07 614.66 691.07 682.84 676.7 685.04 676.7 617.02"/><polygon class="cls-16" points="858.82 591.33 819.34 596.92 819.4 582.89 858.82 577.46 858.82 508.8 873.18 506.6 873.18 575.16 913.71 569.76 913.66 583.42 873.18 588.97 873.18 657.15 858.82 659.35 858.82 591.33"/><polygon class="cls-16" points="1040.95 565.74 1001.47 571.32 1001.53 557.29 1040.95 551.87 1040.95 483.2 1055.31 481.01 1055.31 549.56 1095.84 544.17 1095.79 557.82 1055.31 563.37 1055.31 631.56 1040.95 633.75 1040.95 565.74"/><polygon class="cls-16" points="676.7 928.14 637.22 933.73 637.28 919.69 676.7 914.27 676.7 845.61 691.07 843.41 691.07 911.96 731.59 906.57 731.54 920.23 691.07 925.77 691.07 993.96 676.7 996.16 676.7 928.14"/><polygon class="cls-16" points="858.82 902.45 819.34 908.04 819.4 894.01 858.82 888.58 858.82 819.92 873.18 817.72 873.18 886.28 913.71 880.88 913.66 894.54 873.18 900.09 873.18 968.27 858.82 970.47 858.82 902.45"/><polygon class="cls-16" points="1040.95 876.86 1001.47 882.44 1001.53 868.41 1040.95 862.98 1040.95 794.32 1055.31 792.13 1055.31 860.68 1095.84 855.29 1095.79 868.94 1055.31 874.49 1055.31 942.68 1040.95 944.87 1040.95 876.86"/><polygon class="cls-16" points="676.7 1241.11 637.22 1246.85 637.28 1232.82 676.7 1227.23 676.7 1158.5 691.07 1156.53 691.07 1225.09 731.59 1219.69 731.54 1233.35 691.07 1238.9 691.07 1307.08 676.7 1309.12 676.7 1241.11"/><polygon class="cls-16" points="1040.95 1189.98 1001.47 1195.57 1001.53 1181.53 1040.95 1176.11 1040.95 1107.45 1055.31 1105.25 1055.31 1173.8 1095.84 1168.41 1095.79 1182.07 1055.31 1187.61 1055.31 1255.8 1040.95 1258 1040.95 1189.98"/><polygon class="cls-16" points="475.62 911.16 475.56 900.38 460.62 891.98 460.62 819.54 450.19 813.81 450.19 886.11 427.54 873.37 427.5 883.93 450.19 896.77 450.19 964.99 460.62 970.72 460.62 902.68 475.62 911.16"/><polygon class="cls-16" points="475.63 1223.5 475.58 1212.72 460.64 1204.32 460.64 1131.88 450.21 1126.15 450.21 1198.45 427.56 1185.71 427.51 1196.27 450.21 1209.11 450.21 1277.33 460.64 1283.06 460.64 1215.01 475.63 1223.5"/><polygon class="cls-16" points="381.79 859.64 381.73 848.86 366.79 840.46 366.79 768.02 356.36 762.3 356.36 834.59 333.71 821.86 333.67 832.41 356.36 845.25 356.36 913.47 366.79 919.2 366.79 851.16 381.79 859.64"/><polygon class="cls-16" points="381.8 1171.98 381.75 1161.2 366.81 1152.8 366.81 1080.36 356.38 1074.64 356.38 1146.93 333.73 1134.19 333.68 1144.75 356.38 1157.59 356.38 1225.81 366.81 1231.54 366.81 1163.5 381.8 1171.98"/><polygon class="cls-14" points="346.4 445.61 334.22 438.92 333.11 589.49 345.4 582.29 346.4 445.61"/><polygon class="cls-20" points="345.4 582.29 333.11 589.49 381.69 616.15 381.79 602.27 345.4 582.29"/><polygon class="cls-14" points="440.2 497.09 428.02 490.41 426.91 640.98 439.19 633.78 440.2 497.09"/><polygon class="cls-20" points="439.19 633.78 426.91 640.98 475.49 667.64 475.59 653.76 439.19 633.78"/><polygon class="cls-16" points="475.62 599.92 475.56 589.14 460.62 580.74 460.62 508.3 450.19 502.58 450.19 574.88 427.54 562.14 427.5 572.69 450.19 585.54 450.19 653.76 460.62 659.48 460.62 591.44 475.62 599.92"/><polygon class="cls-16" points="381.79 548.4 381.73 537.62 366.79 529.22 366.79 456.78 356.36 451.06 356.36 523.36 333.71 510.62 333.67 521.17 356.36 534.02 356.36 602.24 366.79 607.96 366.79 539.92 381.79 548.4"/><line class="cls-8" x1="927.46" y1="1159.27" x2="948.93" y2="1130.56"/><line class="cls-8" x1="801.67" y1="1149" x2="823.06" y2="1172.33"/><line class="cls-4" x1="520.63" y1="766.92" x2="520.63" y2="804.2"/><line class="cls-4" x1="562.3" y1="774.47" x2="562.3" y2="811.71"/><line class="cls-4" x1="1185.43" y1="686.81" x2="1185.43" y2="724.04"/><line class="cls-4" x1="1185.43" y1="1000.58" x2="1185.43" y2="1037.81"/><line class="cls-4" x1="1185.43" y1="1314.18" x2="1185.43" y2="1351.41"/><line class="cls-4" x1="520.63" y1="1082.86" x2="520.63" y2="1117.5"/><line class="cls-4" x1="562.3" y1="1090.41" x2="562.3" y2="1127.64"/><line class="cls-4" x1="520.63" y1="1395.64" x2="520.63" y2="1430.28"/><line class="cls-4" x1="562.3" y1="1402.75" x2="562.3" y2="1439.01"/><ellipse class="cls-18" cx="204.65" cy="1382.64" rx="34.82" ry="10.93"/><path class="cls-13" d="m204.47,1319.88h0c4.68,0,8.48,3.8,8.48,8.48v54.28c0,3.17-2.57,5.74-5.74,5.74h-5.49c-3.17,0-5.74-2.57-5.74-5.74v-54.28c0-4.68,3.8-8.48,8.48-8.48Z"/><path class="cls-2" d="m263.1,1236.68c0,84.97-25.36,114.95-56.64,114.95s-56.64-29.98-56.64-114.95,25.36-192.77,56.64-192.77,56.64,107.79,56.64,192.77Z"/><path class="cls-3" d="m210.57,1326.51c-40.03,0-47.6-59.02-48.23-98.11-.02,1.84-.05,3.67-.05,5.52,0,38.75,5.71,103.76,43.95,103.76,14.75,0,24.65-9.69,31.26-23.8-6.73,7.79-15.5,12.63-26.93,12.63Z"/><path class="cls-26" d="m228.1,1088.21c-2.25-5.57-7.51-18.39-15.12-17.71-11.61,3.29-5.75,27.06-4.74,36.09,2.21,9.94,8.45,41.83,20.93,41.23,17.12-1.01,3.28-49.69-1.07-59.62Z"/><ellipse class="cls-18" cx="359.25" cy="1491.46" rx="42.29" ry="13.27"/><path class="cls-13" d="m359.03,1415.24h0c5.69,0,10.3,4.62,10.3,10.3v62.59c0,5.69-4.62,10.3-10.3,10.3h-2.74c-4.17,0-7.56-3.39-7.56-7.56v-65.33c0-5.69,4.62-10.3,10.3-10.3Z"/><path class="cls-2" d="m430.24,1314.19c0,103.2-30.8,139.61-68.79,139.61s-68.79-36.41-68.79-139.61,30.8-234.12,68.79-234.12,68.79,130.92,68.79,234.12Z"/><path class="cls-3" d="m366.45,1423.29c-48.62,0-57.82-71.68-58.57-119.16-.02,2.23-.06,4.45-.06,6.71,0,47.06,6.94,126.02,53.38,126.02,17.92,0,29.94-11.77,37.96-28.9-8.18,9.46-18.83,15.34-32.71,15.34Z"/><path class="cls-26" d="m387.73,1133.88c-2.73-6.77-9.12-22.34-18.36-21.51-14.1,4-6.98,32.87-5.76,43.83,2.68,12.07,10.27,50.81,25.42,50.08,20.79-1.22,3.98-60.35-1.3-72.41Z"/><ellipse class="cls-18" cx="669.11" cy="1496.37" rx="57.86" ry="23.08"/><path class="cls-21" d="m714.95,1493.69c-2.82,9.65-20.41,18.3-44.62,18.3s-40.82-7.5-43.61-17.16l-3.52-41.99c0-12.96,19.89-23.47,44.42-23.47s49.72,18.83,49.72,18.83l-2.39,45.48Z"/><path class="cls-15" d="m723.96,1447.63c0,10.67-24.03,19.32-53.67,19.32s-53.67-8.65-53.67-19.32v-12.35c6.8-7.87,29.59-6.98,53.67-6.98s46.87-.89,53.67,6.98v12.35Z"/><ellipse class="cls-21" cx="670.29" cy="1435.28" rx="53.67" ry="19.32"/><ellipse class="cls-18" cx="670.29" cy="1434.08" rx="38.18" ry="10.73"/><path class="cls-13" d="m670.94,1396.78c-4.48,0-8.15,3.67-8.15,8.15v39.34c0,.11.01.22.02.34,2.42.13,4.92.21,7.49.21,3.02,0,5.96-.1,8.78-.29,0-.09.01-.17.01-.26v-39.34c0-4.48-3.67-8.15-8.15-8.15Z"/><circle class="cls-2" cx="672.99" cy="1337.18" r="73.35"/><path class="cls-3" d="m663.2,1384.82c-30.75-9.35-48.16-41.98-38.81-72.73,1.76-5.8,4.36-11.12,7.61-15.87-6.08,6.37-10.84,14.17-13.58,23.16-9.35,30.75,8.05,63.38,38.81,72.73,24.96,7.59,51.14-2.44,65.13-22.93-14.73,15.43-37.39,22.26-59.16,15.64Z"/><ellipse class="cls-26" cx="700.16" cy="1309.47" rx="17.29" ry="32.65" transform="translate(-748.56 983.65) rotate(-49.19)"/><path class="cls-18" d="m1265.15,1382.29c24.01-7.03,51.16,1.42,66.38,8.99,3.82,2.22,10.92,2.62,16.69,1.07,6.96-1.87,15.52-2.63,23.25-2.06,20.62.53,53.67,18.87,23.28,24.4-5.18.62-9.07,2.67-10.04,5.01-2.24,5.45-10.05,10.78-20.7,13.73-9.84,2.73-21.53,3.5-32.46,3.17-12.66-.39-23.2-3.76-36.4-1.48-15.86,3.43-32.46,6.76-49.81,5.37-16.88-.87-33.12-3.97-46.02-8.56-4.54-1.61-11.2-1.55-16.32.04-23.16,7.3-65.2,8.19-64.82-6.7,1.12-7.22-19.25-5.46-21.05-14.01-1.68-5.76,7.03-10.86,19.53-12.85,6.76-1.09,15.57-1.2,20.1-4.17,9.58-20.22,47.23-24.33,85.54-18.47,9.74,1.29,19.06,3.37,26.38,6.36,4.43,1.81,11.22,1.84,16.48.16Z"/><path class="cls-2" d="m1265.55,1299.94c23.69-14.58,51.35,5.92,67.01,23.81,3.94,5.21,11.08,6.49,16.78,3.3,6.88-3.84,15.42-5.1,23.19-3.42,20.69,2.29,54.79,45.43,24.63,56.3-5.16,1.13-8.95,5.55-9.79,10.77-1.96,12.18-9.5,23.79-20.02,29.89-9.72,5.63-21.39,6.76-32.37,5.42-12.7-1.55-23.45-9.72-36.56-5.26-15.72,6.89-32.18,13.53-49.64,9.48-16.96-2.87-33.4-10.73-46.58-21.75-4.63-3.88-11.31-4.1-16.36-.78-22.83,15.25-64.92,15.03-65.32-18.57.74-16.24-19.58-13.35-21.84-32.73-1.99-13.08,6.47-24.14,18.89-27.97,6.72-2.11,15.54-1.88,19.93-8.34,8.53-45.11,46.05-52.4,84.75-37.13,9.83,3.44,19.28,8.63,26.78,15.76,4.53,4.31,11.35,4.75,16.52,1.24Z"/><path class="cls-26" d="m1178.57,1316.64c6.91-3.28,14.42-5.28,22.04-5.95,4.81-.42,9.6.03,14.36.68,4.7.64,13.2,2.84,12.09-5.34-1.73-12.72-26.05-13.11-34.97-13.84-6.91-.57-14.05-.27-20.45,2.39-6.19,2.57-12.12,7.92-13.51,14.74-1.35,6.63,2.48,12.34,9.65,11.46,3.84-.47,7.29-2.48,10.79-4.14Z"/><path class="cls-26" d="m1300.07,1329.65c3.9,1.7,8.44,3.7,11.84-.28.22-.26.43-.54.57-.85.41-.88.28-1.92,0-2.85-1.24-4.08-4.2-6.05-7.54-8.47-4.52-3.29-9.33-6.37-14.72-7.84-2.67-.73-5.58-1.03-8.17-.05-2.59.98-4.74,3.5-4.58,6.26.22,3.83,4.28,6.09,7.79,7.63,4.94,2.15,9.88,4.31,14.81,6.46Z"/><path class="cls-25" d="m1332.91,1390.42c-3.52-.56-7.48-1.23-10.35.88-2.67,1.95-3.38,5.86-2.23,8.96,1.15,3.1,3.81,5.43,6.75,6.95,8.72,4.52,19.37,2.62,28.59-.78,5.63-2.08,20.23-11.66,9.09-16.83-2.61-1.21-9.77,1.56-12.63,1.8-6.35.53-12.93.02-19.21-.98Z"/><path class="cls-25" d="m1208.65,1384.63c-8.93-3.63-17.49-8.21-26.67-11.15-9.18-2.93-19.32-4.13-28.39-.86-2.71.98-5.25,2.33-7.71,3.82-2.84,1.72-3.81,3.42-4.49,6.75-.34,1.66-.33,3.44.34,5,.37.88.94,1.66,1.57,2.39,5.32,6.11,14.76,4.36,21.9,2.76,8.82-1.98,17.35-6.37,26.36-5.68,5.53.43,10.73,2.76,15.59,5.43,12.86,7.06,24.53,16.78,38.65,20.76,13.77,3.87,29.14,1.66,41.26-5.93,1.22-.76,2.44-1.61,3.24-2.8,8.62-12.79-18.79-12.8-25.02-11.51-18.14,3.75-39.8-2.13-56.64-8.98Z"/><circle class="cls-17" cx="335.15" cy="1229.54" r="10.24"/><path class="cls-2" d="m335.01,1248.35c.37-4.92,2.4-9.7,5.69-13.46,3.29-3.76,7.84-6.48,12.78-7.64"/><circle class="cls-17" cx="393.16" cy="1287.11" r="10.24"/><path class="cls-2" d="m375.34,1281.08c4.55,1.9,8.46,5.32,11,9.62,2.54,4.31,3.69,9.47,3.24,14.54"/><circle class="cls-17" cx="347.72" cy="1354.39" r="10.24"/><path class="cls-2" d="m345.85,1373.11c.82-4.86,3.28-9.44,6.9-12.88,3.62-3.44,8.4-5.73,13.43-6.43"/><circle class="cls-17" cx="188.99" cy="1155.92" r="9.17"/><path class="cls-2" d="m183.67,1171.9c1.68-4.08,4.72-7.6,8.57-9.89,3.84-2.29,8.47-3.35,13-2.97"/><circle class="cls-17" cx="223.78" cy="1204.11" r="9.17"/><path class="cls-2" d="m207.32,1207.72c4.37-.65,8.95.17,12.88,2.29,3.94,2.13,7.21,5.56,9.21,9.65"/><circle class="cls-17" cx="208.35" cy="1263.8" r="9.17"/><path class="cls-2" d="m191.68,1261.37c4.31.93,8.31,3.31,11.24,6.69,2.93,3.38,4.78,7.74,5.21,12.28"/><path class="cls-26" d="m367.24,1369.53c-1.37,3.83-5.86,9.54-10.41,6.41-5.05-3.47,1.97-11.58,5.38-13.36.93-.49,1.97-.87,3.01-.75,3.36.38,2.81,5.48,2.02,7.7Z"/><path class="cls-26" d="m193.9,1270.63c3.7,1.7,8.99,6.67,5.48,10.93-3.9,4.73-11.37-2.98-12.84-6.53-.4-.97-.69-2.04-.48-3.07.68-3.32,5.71-2.32,7.84-1.34Z"/><path class="cls-26" d="m377.64,1292.06c3.16,2.56,7.07,8.68,2.62,11.94-4.94,3.62-10.28-5.69-10.84-9.49-.15-1.04-.17-2.15.29-3.09,1.47-3.05,6.1-.84,7.93.64Z"/><path class="cls-26" d="m217.94,1214.72c3.51,2.07,8.27,7.55,4.35,11.43-4.35,4.31-11.01-4.11-12.12-7.79-.3-1.01-.48-2.1-.17-3.1,1.01-3.23,5.91-1.73,7.94-.54Z"/><path class="cls-26" d="m345.82,1241.77c2.18-3.44,7.81-8.02,11.56-3.97,4.17,4.49-4.47,10.87-8.18,11.86-1.02.27-2.11.42-3.1.07-3.2-1.11-1.54-5.97-.28-7.95Z"/><path class="cls-26" d="m192.61,1170.6c2.18-3.44,7.81-8.02,11.56-3.97,4.17,4.49-4.47,10.87-8.18,11.86-1.02.27-2.11.42-3.1.07-3.2-1.11-1.54-5.97-.28-7.95Z"/><path class="cls-26" d="m1265.36,1178.32c7.06,3.05,13.88,12.09,21.87,8.21,9.08-4.42,4.73-11.14.16-17.26-7.79-10.43-19.33-17.32-31.48-18.8-12.14-1.48-24.76,2.47-34.41,10.77-3.77,3.25-7.38,8.08-6.43,13.27.8,4.33,4.68,7.3,8.61,7.99,3.93.69,7.93-.43,11.76-1.62,9.81-3.06,20.41-6.67,29.91-2.56Z"/><path class="cls-31" d="m1267.21,49.54c.51-2.19.17-4.65-.96-6.55-2.75-4.61-6.32-8.72-10.32-12.29-3.54-3.16-7.98-7.24-12.82-8.04-1.9-.31-3.96-.05-5.55,1.04-6.45,4.42,3.12,14.58,6.27,18.28,3.73,4.4,13.06,14.52,19.76,12.09,1.42-.52,2.54-1.72,3.15-3.11.2-.45.35-.93.47-1.42Z"/><path class="cls-30" d="m1263.56,151.87c11.66-10.33-3.3-27.93-15.68-18.47-10.93,8.36-25.04,13.6-42.06,13.76-39.96.86-69-33.73-69.59-69.68-.06-3.62-5.35-3.95-5.89-.37-6.83,45.78,28.01,95.42,79.97,94.25,22.25-.33,40.09-7.85,53.24-19.49Z"/><path class="cls-31" d="m1275.45,65.21c1.8-2.93.08-7.3-4.05-6.46-3.71.75-5.68,5.94-2.01,8.06,1.47.85,3.43.76,4.8-.24.53-.39.95-.85,1.26-1.36Z"/><path class="cls-18" d="m348.72,1453.8s7.3,5.32,20.61,4.57v-5.13s-4.97,2.33-20.61.55Z"/><path class="cls-18" d="m196.57,1352.05s5.59,4.08,15.79,3.5v-3.93s-3.81,1.79-15.79.42Z"/><path class="cls-18" d="m623.88,1458.52s21.92,18.03,72.43,10.93c19.08-2.69,19.23,13.93,19.23,13.93l1.33-25.37c-1.31,1.73-48.8,24.53-92.98.51Z"/><ellipse class="cls-27" cx="852.55" cy="245.93" rx="7.85" ry="5.83" transform="translate(36.36 594) rotate(-39.19)"/><path class="cls-28" d="m695.83,317.45c2.2,1.22,4.29,2.68,6.54,3.82,9.62,4.89,25.62,3.47,34.52-2.48,3.01-2.02,5.5-4.74,8.55-6.71,5.16-3.33,10.89-3.73,16.74-4.78,6.05-1.09,11.83-3.6,18.04-4.22,7.81-.78,15.85,1.75,23.59,2.45,7.81.7,15.75,0,23.32-2.04,7.56-2.04,14.87-5.21,22.68-6.27,8.32-1.14,16.79-.87,25.1.21,7.91,1.03,15.84,2.29,23.18,5.51,1.39.61,2.76,1.25,4.13,1.91,4.96,2.36,10.08,4.89,15.62,5.39,4.81.44,10.54.23,14.44-3.02,1.11-.93,2.06-2.13,2.37-3.55.3-1.42-.18-3.06-1.39-3.85-1.33-.87-3.26-.87-4.76-1.34-1.96-.61-3.86-1.16-5.89-1.49-3.87-.63-7.8-.77-11.66-1.44-4.26-.74-15.78-2.21-18.02-6.49-.19-.35-.31-.77-.21-1.15.21-.76,1.14-1,1.88-1.28,1.86-.7,3.25-2.53,3.41-4.51.04-.47.01-.98-.23-1.39-.23-.39-.61-.66-1-.89-4.54-2.82-10.08-3.49-15.42-3.6-30.89-.62-61.52,4.03-92.13,8.1-4.69.62-9.44,1.26-13.84,3.01-7.27,2.9-13.11,8.4-20.96,9.79-9.29,1.64-19.58,1.12-28.95.54-8.95-.56-17.84-1.96-26.83-1.69-4.35.13-8.81.6-12.91,2.12-2.81,1.04-7.09,2.92-8.06,6.08-2.61,8.46,8.79,9.95,13.91,11.43,1.48.43,2.87,1.08,4.22,1.83Z"/><path class="cls-20" d="m847.19,264.79c-3.69,6.3-7.94,12.1-12.78,16.53,3.01,1.53,6.23,2.52,9.69,2.66,4.94.2,16.08.98,15.55-6.66-.37-5.23-7.15-9.12-12.46-12.53Z"/><path class="cls-16" d="m817.67,285.54c-9.14,8.82-27.57,13.37-39.22,7.49-6.68-3.37-12.39-8.35-17.43-13.82-3.1-3.37-5.96-6.94-8.72-10.58-1.36-1.79-2.7-3.6-4.03-5.42-1.24-1.7-2.38-3.85-4.13-5.06-.66-.46-1.44-.8-2.24-.73-1.06.1-1.9.9-2.64,1.66-1.19,1.21-2.04,3.21-2.91,4.68-5.27,8.89-9.57,18.36-12.78,28.18-2.37,7.25-2.54,14.25-10.23,17.85-6.22,2.91-13.27,4.03-20.09,3.2-3.81-.47-7.71-1.61-10.18-4.81-.69-.89-1.19-1.93-1.42-3.03-.99-4.67,2.57-7.66,6.16-9.47,9.12-4.6,12.43-13.72,17.36-21.92,5.25-8.74,8.94-18.31,14.17-27.06,5.32-8.9,12.14-16.2,23.38-15.49,5.89.37,11.55,3.01,15.89,7.01,2.63,2.42,4.79,5.3,7.27,7.87,5.3,5.5,13.81,9.28,21.52,8.14,10.27-1.52,14.7-12.98,18.21-21.31,3.05-7.26,4.89-14.89,7.69-22.23.76-1.98,1.61-4.04,3.06-5.63,1.55-1.7,3.97-2.26,6.13-2.72,2.09-.45,4.93-.75,6.37-2.54,2.68-3.33-3.97-5.2-6.01-5.9-8.39-2.86-16.99-8.94-18.93-18.1-2.55-11.98,3.41-23.68,13.02-30.4,1.81-1.27,1.55-1.04.69-3.08-1.76-4.18-3.19-8.25.2-12.16,1.51-1.73,3.75-2.8,6.05-2.88,2.52-.09,5.22.67,6.95,2.42,1.43,1.44,3.29,3.17,4.64,6.63-.76-3.87-1-7.99.92-11.6,2.04-3.83,6.94-5.76,11.12-4.6,9.7,2.69,8.54,12.21,6.49,19.21,2.1-5.58,6.48-8.74,11.58-8.54,2.09.08,4.16,1.06,5.45,2.71,1.22,1.57,1.69,3.62,1.67,5.61-.02,2.67-1.11,5.86-2.82,8.51,8.77,6.35,14.3,15.86,12.94,28.11-.87,7.8-6.59,14.41-13.27,18.1-3.46,1.91-6.97,2.91-10.88,3.04-3.31.11-6.13,2.58-4.77,6.45,1.3,3.71,8.01,3.04,11.17,4.68,3.15,1.63,5.43,4.64,7.06,7.72,11.23,21.13,19.8,42.71,35.92,60.91,4.17,4.71,8.59,7.64,13.75,11.11,3.95,2.65,12.49,8.46,9.22,14.42-.67,1.22-1.86,2.08-3.16,2.57-13.9,5.2-26.57-3.25-35.41-13.07-7.42-8.25-14-17.3-19.61-26.87-4.89-8.34-7.96-18.55-15.92-24.64"/><path class="cls-16" d="m804.21,270.04c-4.89-2.15-9.32-5.35-12.9-9.32-5.95-6.58-9.56-15.17-16.25-20.99-7.35-6.38-17.24-6.93-25.16-1.11-13.57,9.97-18.93,28.48-27.28,42.37-4.93,8.2-8.24,17.32-17.36,21.92-2.76,1.39-5.5,3.48-6.17,6.5-.64,2.92.92,6,3.28,7.84,2.36,1.83,5.38,2.61,8.34,2.97,6.82.84,13.87-.28,20.09-3.2,7.7-3.6,7.86-10.6,10.23-17.85,3.21-9.82,7.51-19.29,12.78-28.18,1.45-2.45,3.39-7.83,7.33-5.83.87.44,1.52,1.22,2.13,1.98,5.13,6.41,9.65,13.23,15.22,19.29,5.04,5.48,10.75,10.45,17.43,13.82,11.65,5.88,30.08,1.33,39.22-7.49,13.03-12.57,20.11-30.82,25.81-47.63"/><path class="cls-20" d="m761.14,265.23c.87.44,1.52,1.22,2.13,1.98,5.13,6.41,9.65,13.23,15.22,19.29,3.06,3.33,6.37,6.46,10,9.17-3.62-.24-7.06-1.05-10.05-2.56-6.68-3.37-12.39-8.35-17.43-13.82-2.49-2.71-4.82-5.55-7.08-8.45,1.44-2.53,3.38-7.56,7.21-5.61Z"/><ellipse class="cls-11" cx="823.11" cy="157.06" rx="4.22" ry="5.16"/><ellipse class="cls-11" cx="855.33" cy="161.51" rx="4.22" ry="5.16"/><path class="cls-11" d="m843.28,171.93c.06,1.28.05,2.49.05,3.46,0,5.16-.83,13.61-8.08,12.06-7.58-1.62-5.48-17.57-2.12-21.94,1.06-1.38,2.6-2.53,4.34-2.56,4.61-.07,5.6,4.81,5.81,8.97Z"/><path class="cls-1" d="m638.43,188.07c-7.72-3.67-16.93-5.63-26.11-7.39-1.87-.36-3.75-.65-5.64-.88l-2.08-.26c-1.1-.15-2.26-.31-3.1-.76-1.15-.61-1.42-1.6-1.6-2.5-.37-1.87-.64-3.75-.82-5.63,8.46.88,17.02,1.25,25.31-.16,8.43-1.44,18.05-7.64,16.16-17.36-1.53-7.86-7.79-13.07-14.56-16.61-7.95-4.15-16.77-7.65-25.38-10.14-2.14-.62-4.37-1.22-6.13-2.6-3.16-2.47-3.28-7.94.95-9.32,5.89-1.91,12.08-2.84,17.17-6.67,5.59-4.19,10.5-11.1,10.77-18.32.33-8.87-2.73-16.11-7.85-21.65,1.75-2.4,3.15-5,4.3-7.76,1-2.39,2.6-5.96.57-8.28-1.49-1.71-4.26-1.8-6.33-1.48-4.61.73-8.98,2.93-12.31,6.19,1.84-3.53,3.88-7.99,4.15-12.02.26-3.84-3.59-5.2-6.84-4.43-5.26,1.24-9.67,3.16-14.19,6.02-4.18,2.65-8.13,5.66-11.83,8.96-.27.04-.55.08-.82.12,1.34-2.83,2.49-5.75,3.4-8.75.38-1.26.73-2.63.3-3.89-.67-1.97-3.08-2.91-5.13-2.56-2.05.34-3.8,1.64-5.41,2.96-11.92,9.77-22.69,24.18-26.24,39.4-1.71,7.31-.9,15.42,3.24,21.8,4.89,7.54,11.95,8.9,20.03,10.9,2.75.68,5.4,2.3,4.41,5.61-1.06,3.54-5.18,4.85-8.29,5.75-8.61,2.5-17.43,5.99-25.38,10.14-6.77,3.54-13.03,8.75-14.56,16.61-1.89,9.73,7.73,15.93,16.16,17.36,4.41.75,8.9.99,13.42.92-.08,1.36-.16,2.72-.24,4.08-.04.65-.1,1.34-.72,1.87-.52.45-1.37.7-2.18.91-3.64.96-11.79,2.31-11.79,2.31-7.89,1.54-15.56,3.95-21.36,7.79-12.34,8.15-10.38,21.77,4.29,28.07,8.98,3.85,20.89,5.26,32.66,5.71,1.08,4.25,4.59,7.95,9.07,9.11,2.02.52,4.13.55,6.22.57,6.74.08,13.28-.33,19.99-.44,12.4-.2,24.84-1.3,36.96-3.53,29.94-5.52,43.63-27.31,17.36-39.79Z"/><path class="cls-1" d="m529.06,193.87c13.84,2.78,28.11,2.27,42.13,1.41,7.08-.43,14.17-.56,21.23-1.17,5.28-.45,10.98,1.03,13.34,6,1.39,2.92,1.17,6.37-.06,9.35-1.15,2.77-3.18,5.53-5.55,7.51-2.36,1.97-6.01,2.9-9.06,3.59-6.82,1.55-13.91,1.49-20.87,1.61-16.92.3-39.38.51-54.04-5.78-14.67-6.29-16.62-19.92-4.29-28.07,5.8-3.83,13.47-6.25,21.36-7.79,0,0,8.15-1.34,11.79-2.31.82-.22,1.66-.47,2.18-.91.62-.53.68-1.22.72-1.87.34-5.86.69-11.71,1.03-17.57h28.41"/><path class="cls-1" d="m625.02,200.75c-15.73,4.12-32.47,3.82-48.77,3.63-7.21-.09-16.58-.48-22.44,4.15-3.83,3.03-5.97,7.94-5.22,12.6.75,4.66,4.48,8.84,9.3,10.09,2.02.52,4.13.55,6.22.57,6.74.08,13.28-.33,19.99-.44,12.4-.2,24.84-1.3,36.96-3.53,29.94-5.52,43.63-27.31,17.36-39.79-7.72-3.67-16.93-5.63-26.11-7.39-1.87-.36-3.75-.65-5.64-.88l-2.08-.26c-1.1-.15-2.26-.31-3.1-.76-1.15-.61-1.42-1.6-1.6-2.5-1.09-5.47-1.37-10.99-.83-16.49h-29.63"/><path class="cls-18" d="m598.16,151.99c-3.39-.31-6.97-1.44-8.97-4.19-.97-1.34-1.49-2.95-2.38-4.34-.89-1.39-2.37-2.62-4.01-2.46-2.09.21-3.19,2.39-3.73,4.52-.54-2.12-1.64-4.3-3.73-4.52-1.64-.17-3.12,1.06-4.01,2.46-.89,1.39-1.41,3-2.38,4.34-2,2.75-5.58,3.88-8.97,4.19-4.24.39-8.6.52-12.85.65l1.3,22.25c8.37-.15,16.8-1.35,24.94-2.4.45-.06,1.02-.17,1.61-.31,2.67-.65,5.48-.65,8.15,0,.59.14,1.16.26,1.61.31,4.51.58,10.1.88,14.73,1.35l-1.33-21.87Z"/><path class="cls-1" d="m547.14,149.12c4.25-.14,8.61-.27,12.85-.65,3.39-.31,6.97-1.44,8.97-4.19.97-1.34,1.49-2.95,2.38-4.34.89-1.39,2.37-2.62,4.01-2.46,2.39.24,3.49,3.07,3.93,5.43l.3,20.75c-.18,1.15-.41,2.35-1.13,3.26-1.16,1.47-3.21,1.81-5.06,2.05-12.61,1.61-25.94,3.63-38.62,1.47-8.43-1.44-18.05-7.64-16.16-17.36,1.53-7.86,7.79-13.07,14.56-16.61,7.95-4.15,16.77-7.65,25.38-10.14,3.11-.9,7.24-2.21,8.29-5.75.99-3.31-1.66-4.93-4.41-5.61-8.08-2-15.14-3.36-20.03-10.9-4.14-6.38-4.95-14.49-3.24-21.8,3.56-15.22,14.32-29.63,26.24-39.4,1.61-1.32,3.36-2.62,5.41-2.96,2.05-.34,4.47.59,5.13,2.56.42,1.25.08,2.62-.3,3.89-.91,3-2.06,5.92-3.4,8.75.27-.04.55-.08.82-.12,3.7-3.3,7.65-6.3,11.83-8.96,4.51-2.86,8.93-4.78,14.19-6.02,3.25-.77,7.1.59,6.84,4.43-.27,4.03-2.31,8.49-4.15,12.02,3.33-3.27,7.7-5.46,12.31-6.19,2.07-.33,4.84-.23,6.33,1.48,2.02,2.31.42,5.89-.57,8.28-1.16,2.76-2.56,5.37-4.3,7.76,5.12,5.54,8.17,12.77,7.85,21.65-.27,7.22-5.18,14.13-10.77,18.32-5.1,3.82-11.28,4.75-17.17,6.67-4.23,1.37-4.11,6.84-.95,9.32,1.76,1.38,3.98,1.98,6.13,2.6,8.61,2.5,17.43,5.99,25.38,10.14,6.77,3.54,13.03,8.75,14.56,16.61,1.89,9.72-7.73,15.93-16.16,17.36-12.68,2.16-26.01.15-38.62-1.47-1.85-.24-3.9-.58-5.06-2.05-.72-.91-.95-2.11-1.13-3.26l.3-20.75c.44-2.36,1.53-5.19,3.93-5.43,1.64-.17,3.12,1.06,4.01,2.46.89,1.39,1.41,3,2.38,4.34,2,2.75,5.58,3.88,8.97,4.19,4.24.39,8.6.52,12.85.65"/><path class="cls-11" d="m594.27,88.07c.08,1.13.07,2.2.07,3.06,0,4.56-1.06,12.02-10.35,10.65-9.7-1.43-7.01-15.52-2.71-19.38,1.36-1.22,3.33-2.24,5.55-2.26,5.91-.06,7.17,4.25,7.44,7.92Z"/><ellipse class="cls-18" cx="574.79" cy="334.32" rx="56.43" ry="13.23"/><path class="cls-1" d="m564.74,70.03s.15,7.08,6.61,6.91c6.47-.17,6.01-7.49,6.01-7.49"/><path class="cls-1" d="m593.11,68.75s.15,7.08,6.61,6.91c6.47-.17,6.01-7.49,6.01-7.49"/><path class="cls-19" d="m496.41,215.73c1.13,1.38,2.49,2.74,4.08,4.06"/><path class="cls-19" d="m497.31,183.56s-10.28,10.14-5.33,23.82"/><path class="cls-19" d="m646.98,179.59s13.99,6.3,17.78,17.84"/><path class="cls-27" d="m904.58,126.21c-.22,0-.45-.02-.67-.07-2.56-.56-3.5-3.47-3.25-10.07.17-4.36.86-9.68,1.85-14.22,1.28-5.88,3.39-12.63,8.34-12.63.35,0,.71.04,1.07.12,6.38,1.39,4.11,11.86,3.36,15.3-.96,4.43-2.51,9.46-4.13,13.45-2.74,6.75-4.61,8.13-6.57,8.13Z"/><path class="cls-28" d="m910.85,91.71c.18,0,.36.02.54.06,2.18.47,3.36,3.51,1.45,12.32-1.88,8.63-6.04,19.61-8.26,19.61-.05,0-.09,0-.14-.01-2.18-.47-1.41-12.5.51-21.31,1.76-8.09,3.88-10.66,5.9-10.66m0-5h0c-7.61,0-9.83,10.23-10.78,14.6-1.02,4.68-1.73,10.16-1.9,14.66-.14,3.69-.44,11.38,5.21,12.61.39.09.8.13,1.2.13,4.11,0,6.53-3.87,8.89-9.69,1.67-4.12,3.26-9.3,4.26-13.86,1.04-4.8,1.32-8.46.86-11.2-.92-5.38-4.59-6.74-6.12-7.07-.53-.12-1.07-.17-1.6-.17h0Z"/><path class="cls-27" d="m900.35,146.91c-.47,0-.94-.05-1.39-.15-3.52-.77-5.76-4.25-4.99-7.77.65-2.98,3.33-5.15,6.38-5.15.47,0,.94.05,1.4.15,1.7.37,3.16,1.38,4.11,2.85s1.26,3.22.89,4.92c-.65,2.98-3.33,5.14-6.38,5.14Z"/><path class="cls-28" d="m900.34,136.34c.28,0,.57.03.86.09,2.18.47,3.56,2.62,3.08,4.8-.41,1.89-2.08,3.18-3.94,3.18-.28,0-.57-.03-.86-.09-2.18-.47-3.56-2.62-3.08-4.8.41-1.89,2.08-3.18,3.94-3.18m0-5h0c-4.22,0-7.93,2.99-8.82,7.11-.51,2.36-.08,4.77,1.23,6.8,1.3,2.03,3.32,3.43,5.68,3.94.63.14,1.28.21,1.93.21,4.21,0,7.93-2.99,8.82-7.11.51-2.36.08-4.77-1.23-6.8-1.3-2.03-3.32-3.43-5.68-3.94-.63-.14-1.28-.21-1.92-.21h0Z"/><path class="cls-6" d="m484.51,1503.31c-2.95-16.82,10.42-27.42,9.89-5.31,14.1-25.55,35.91-26.41,14.99,4.91,4.47-6.69,17.55-6.23,9.59,4.52"/><line class="cls-6" x1="910.61" y1="1479.68" x2="921.01" y2="1476.7"/><line class="cls-6" x1="244.94" y1="1438.32" x2="234" y2="1443.3"/><line class="cls-6" x1="1440.92" y1="1356.78" x2="1430.98" y2="1350.81"/><line class="cls-6" x1="125.24" y1="1358.6" x2="135.18" y2="1352.63"/><line class="cls-12" x1="386.72" y1="1479.88" x2="393.65" y2="1485.94"/><line class="cls-6" x1="777.67" y1="1477.32" x2="786" y2="1482.44"/><line class="cls-6" x1="145.97" y1="1419.23" x2="148.07" y2="1420.33"/><path class="cls-18" d="m1220.18,1724.81c-1.16-.26-2.31-.56-3.44-.91-4.17-1.31-7.91-3.64-12.15-4.79-5.51-1.49-11.19-2.28-16.88-2.61-10.68-.63-21.47.19-32.12,1.11-8.72.76-17.83,1.06-26.41,2.76-3.22.64-12.36,2.29-12.36,6.99s11.87,8.27,26.52,8.27c9.31,0,18.4-2.25,27.61-3.26,4.68-.52,9.43-.73,14.11-.13,4.54.58,7.52,1.75,11.2,4.4,6.3,4.54,14.89,5.82,22.46,6.4,14.61,1.13,26.77-1.98,27.15-6.95.5-6.42-12.39-8.87-16.82-9.66-2.96-.53-5.95-.95-8.89-1.61Z"/><path class="cls-16" d="m1164.07,1509.67c-1.8-3.4-8.34-2.7-11.47-3.31-13.88-2.71-20.71-14.94-19.22-28.47,3.46-42.96,83.8-45.1,85.64-1.21.31,7.29-4.09,14.63-9.38,19.29-2.87,2.53-6.23,4.53-9.82,5.84-3.17,1.16-8,1.76-7.83,6.31.21,5.46,8.97,5.33,12.9,5.9,22.98,3.35,35.03,17.62,41.77,39.27,3.46,11.12,5.93,33.02,6.69,44.66.6,9.15,1.02,19.33-2.8,28.07-3.12,7.15-11.78,9.42-16.46,2.11-1.75-2.74-2.47-6-2.88-9.22-2.38-18.72-.46-39.82-7.4-57.66-.45-1.16-1-2.38-2.07-3-5.09-2.98-4.25,9.27-4.18,11.23.71,19.92.01,39.83.65,59.75.77,23.97.21,47.94,1.1,71.9.17,4.62.38,9.4,2.39,13.56,3.55,6.98,14.3,8.77,19.24,14.77,8.51,10.33-7.13,14.2-15.16,13.79-9.96-.39-22.9-1.61-29.05-10.66-.76-1.12-1.11-2.46-1.14-3.81-.1-4.93-.35-18.25-.39-25.7-.14-26.24-.17-52.49-.16-78.74,0-4.81-.36-10.42-5.23-12.59-3.04-1.35-6.59-.55-9.1,1.64-5.13,4.47-5.52,11.2-5.77,17.49-1.18,29.42-2.37,50.15-3.55,79.57-.11,2.85-.25,14.48-1.38,17.09-3.82,8.85-25.32,6.93-33.32,6.44-5.34-.33-11.7-1.85-12.93-7.42-1.47-8.79,8.02-11.68,16.25-12.92,4.41-.67,7.72-4.39,7.93-8.85,1.03-16.52,5.46-98.77,6.11-118.9.16-4.91,3.97-28.36-4.79-28.5-.77-.01-1.51.29-2.16.7-3.69,2.27-5.44,7.19-7.24,10.89-.39.8-.8,1.6-1.24,2.38-4.16,7.52-10.27,14.13-17.91,18.17-7.45,3.94-17.53,6.24-23.76-1.12-2.74-3.24-3.73-8.01-2.11-11.94,2.37-5.72,7.72-5.86,12.81-7.51,9.05-2.94,15.24-11.24,19.82-19.59,7.05-12.83,13.26-28.21,28.99-32.01,1.57-.38,3.19-.64,4.69-1.25,2.82-1.15,4.48-3.46,2.91-6.44Z"/><path class="cls-16" d="m1154.18,1479.6c1.41,1.44,3.74,2.18,5.69,2.48,5.19.8,10.75.6,15.85-.63,3.22-.78,6.35-2.01,9.64-2.41,4.32-.52,10.27.8,10.25,6.26-.01,2.45-1.9,4.1-3.91,5.19-2.96,1.6-6.27,2.54-9.62,2.75"/><path class="cls-18" d="m909.95,1726.95c1.16-.26,2.31-.56,3.44-.91,4.17-1.31,7.91-3.64,12.15-4.79,5.51-1.49,11.19-2.28,16.88-2.61,10.68-.63,21.47,2.91,32.12,3.83,8.72.76,17.83,1.06,26.41,2.76,3.22.64,12.36,2.29,12.36,6.99,0,6.8-16.87,7.9-21.06,8.11-12.57.65-25.7-1.36-37.85-4.44-7.69-1.95-13.92-1.89-20.55,2.89-6.3,4.54-14.89,5.82-22.46,6.4-14.61,1.13-26.77-1.98-27.15-6.95-.5-6.42,12.39-8.87,16.82-9.66,2.96-.53,5.95-.95,8.89-1.61Z"/><path class="cls-5" d="m903.8,1590.88c.77-7.96,2.11-15.77,4.94-23.03.45-1.15.99-2.36,2.05-2.98,5.05-2.95,4.22,9.2,4.15,11.14-.7,19.77,0,38.17-.64,57.94-.76,23.79-1.55,45.2-2.44,68.98-.17,4.59-.38,9.33-2.37,13.46-3.52,6.92-14.19,7.34-19.09,13.3-8.45,10.25,8.43,14.1,16.4,13.69,9.88-.39,22.71-1.6,28.81-10.58.75-1.11,1.1-2.44,1.13-3.79.1-4.89.34-18.12.38-25.5.14-26.05.17-47,.16-73.05,0-4.77.36-10.34,5.19-12.49,3.02-1.34,6.54-.54,9.03,1.63,5.09,4.44,5.48,11.12,5.73,17.36,1.18,29.2,2.35,49.77,3.53,78.97.11,2.83.24,14.37,1.37,16.97,3.79,8.79,25.13,6.88,33.07,6.39,5.3-.33,11.61-1.83,12.84-7.37,1.46-8.72-7.96-11.6-16.12-12.83-4.38-.66-7.66-4.36-7.87-8.78-1.02-16.4-5.42-98.03-6.06-118-.17-5.41-2.57-25.17,3.14-27.68,3.52-1.55,5.5,1.09,6.57,4.39,4.42,13.57,2.88,43.12,4.14,57.34.28,3.14.73,6.37,2.35,9.06,1.63,2.7,4.71,4.75,7.82,4.25,14.06-2.24,11.46-26.92,10.54-36.58-1.63-17.22-4.84-51.16-15.86-65.03-3.2-4.03-7.24-7.52-11.76-10.07-4.66-2.64-9.59-3.58-14.6-5.14-1.44-.45-3.14-.85-4.18-2.03-1.44-1.61-1.96-4.14-1.29-6.19.83-2.54,3.54-3.35,5.92-3.94,5.02-1.25,9.65-2.48,13.61-6,3.27-2.9,5.58-6.75,6.81-10.94,1.56-5.3,1.42-11.02-.03-16.32-4.15-15.11-15.48-29.11-27.8-38.44-1.66-1.26-3.47-2.49-5.54-2.76-2.07-.26-4.45.76-5.04,2.76-.37,1.27.02,2.63.46,3.88,1.03,2.96,2.29,5.85,3.74,8.63-.27-.03-.55-.06-.83-.08-3.83-3.16-7.9-6.02-12.19-8.51-4.63-2.69-9.12-4.44-14.44-5.48-3.28-.64-7.09.86-6.68,4.7.43,4.02,2.65,8.42,4.62,11.88-3.46-3.14-7.92-5.17-12.56-5.73-2.09-.25-4.85-.05-6.28,1.72-1.93,2.4-.2,5.91.89,8.27,1.26,2.72,2.77,5.28,4.61,7.61-4.91,5.74-7.69,13.1-7.02,21.98.54,7.22,5.73,13.95,11.49,17.93,3.13,2.16,6.66,3.74,10.36,4.62,2.72.65,6.68.62,8.02,3.6.25.55.36,1.13.35,1.71-.01,1.82-1.18,3.61-2.91,4.27-2.18.84-4.61.68-6.88,1.01-18.97,2.76-30.17,12.48-37.35,28.21"/><path class="cls-5" d="m970.48,1484.73c-3.58-.32-8.42.16-13.73.73-10.63,1.13-19.14,2.19-18.58,7.43.4,3.75,5.14,6.52,11.68,7.38,2.62.35,5.54.39,8.58.06,2.66-.28,5.17-.82,7.43-1.55"/><path class="cls-18" d="m915.81,1605.07c10.97.64,22.15-3.69,29.82-11.57-3.03.88-6.08,1.72-9.13,2.54-4.53,1.21-9.25,2.36-13.86,1.54-1.44-.26-2.84-.7-4.29-.93-.28-.04-.59-.07-.83.08-.25.16-.34.48-.42.77-.6,2.27-1.2,4.53-1.8,6.8"/><path class="cls-5" d="m893.21,1543.55c-6.83,10.45-8.07,24.54-2.06,35.72,3.02,5.62,7.55,10.42,12.91,13.86,8.28,5.31,18.4,7.46,28.22,6.8,4.94-.33,9.96-1.4,14.06-4.18,4.69-3.18,8.7-9.69,5.69-15.26-2.64-4.88-9.06-5.15-13.96-5.43-4.7-.27-9.38-.96-13.96-2.07-3.75-.91-7.51-2.14-10.59-4.47-3.08-2.33-5.4-5.93-5.36-9.79,0-.85.16-1.77.75-2.38,1.5-1.56,3.97.37,4.77,1.8,1.41,2.52,1.45,6.57,1.31,9.37"/><path class="cls-10" d="m1010.41,1491.12h6.55"/><line class="cls-10" x1="1007.28" y1="1505.17" x2="1012.62" y2="1508.65"/><line class="cls-10" x1="1009.95" y1="1476.81" x2="1015.19" y2="1473"/><path class="cls-10" d="m1116.9,1495.44c-1.88,1.12-3.75,2.23-5.63,3.35"/><line class="cls-10" x1="1112.41" y1="1481.77" x2="1106.04" y2="1481.51"/><line class="cls-10" x1="1124.6" y1="1507.51" x2="1122.05" y2="1513.47"/><ellipse class="cls-28" cx="1158.83" cy="1467.66" rx="2.59" ry="4.67"/><ellipse class="cls-28" cx="1185.67" cy="1467.82" rx="2.59" ry="4.67"/><ellipse class="cls-28" cx="936.63" cy="1475.47" rx="2.59" ry="4.67" transform="translate(-200.15 148.06) rotate(-8.17)"/><ellipse class="cls-28" cx="968.67" cy="1471.39" rx="2.59" ry="4.67" transform="translate(-271.67 220.44) rotate(-11.4)"/></g></svg>