<svg width="670" height="206" viewBox="0 0 670 206" fill="none" xmlns="http://www.w3.org/2000/svg">
<path d="M19.935 187.15C19.145 187.15 18.42 186.93 17.76 186.49C17.11 186.04 16.59 185.41 16.2 184.6C15.81 183.79 15.615 182.835 15.615 181.735C15.615 180.635 15.805 179.685 16.185 178.885C16.575 178.075 17.095 177.45 17.745 177.01C18.395 176.57 19.115 176.35 19.905 176.35C20.705 176.35 21.43 176.57 22.08 177.01C22.73 177.45 23.245 178.075 23.625 178.885C24.015 179.685 24.21 180.64 24.21 181.75C24.21 182.85 24.015 183.805 23.625 184.615C23.245 185.425 22.73 186.05 22.08 186.49C21.44 186.93 20.725 187.15 19.935 187.15ZM19.905 185.53C20.425 185.53 20.875 185.39 21.255 185.11C21.635 184.83 21.93 184.41 22.14 183.85C22.36 183.29 22.47 182.585 22.47 181.735C22.47 180.895 22.36 180.195 22.14 179.635C21.93 179.075 21.63 178.66 21.24 178.39C20.86 178.11 20.415 177.97 19.905 177.97C19.395 177.97 18.945 178.11 18.555 178.39C18.175 178.66 17.88 179.075 17.67 179.635C17.46 180.185 17.355 180.885 17.355 181.735C17.355 182.585 17.46 183.29 17.67 183.85C17.88 184.41 18.175 184.83 18.555 185.11C18.945 185.39 19.395 185.53 19.905 185.53Z" fill="#ACACAC"/>
<path d="M65.12 202.15C64.51 202.15 63.965 202.03 63.485 201.79C63.015 201.54 62.635 201.21 62.345 200.8L63.56 199.69C63.73 199.95 63.945 200.15 64.205 200.29C64.465 200.43 64.75 200.5 65.06 200.5C65.4 200.5 65.69 200.43 65.93 200.29C66.17 200.15 66.355 199.95 66.485 199.69C66.615 199.43 66.68 199.12 66.68 198.76V191.5H68.405V198.625C68.405 199.325 68.265 199.94 67.985 200.47C67.715 201 67.335 201.415 66.845 201.715C66.355 202.005 65.78 202.15 65.12 202.15ZM73.3421 202.15C72.6921 202.15 72.1021 201.985 71.5721 201.655C71.0521 201.325 70.6371 200.88 70.3271 200.32C70.0271 199.75 69.8771 199.115 69.8771 198.415C69.8771 197.705 70.0271 197.07 70.3271 196.51C70.6371 195.94 71.0521 195.49 71.5721 195.16C72.1021 194.82 72.6921 194.65 73.3421 194.65C73.8921 194.65 74.3771 194.77 74.7971 195.01C75.2271 195.24 75.5671 195.56 75.8171 195.97C76.0671 196.38 76.1921 196.845 76.1921 197.365V199.435C76.1921 199.955 76.0671 200.42 75.8171 200.83C75.5771 201.24 75.2421 201.565 74.8121 201.805C74.3821 202.035 73.8921 202.15 73.3421 202.15ZM73.6121 200.59C74.2221 200.59 74.7121 200.385 75.0821 199.975C75.4621 199.565 75.6521 199.04 75.6521 198.4C75.6521 197.97 75.5671 197.59 75.3971 197.26C75.2271 196.93 74.9871 196.675 74.6771 196.495C74.3771 196.305 74.0221 196.21 73.6121 196.21C73.2121 196.21 72.8571 196.305 72.5471 196.495C72.2471 196.675 72.0071 196.93 71.8271 197.26C71.6571 197.59 71.5721 197.97 71.5721 198.4C71.5721 198.83 71.6571 199.21 71.8271 199.54C72.0071 199.87 72.2471 200.13 72.5471 200.32C72.8571 200.5 73.2121 200.59 73.6121 200.59ZM75.5471 202V200.065L75.8321 198.31L75.5471 196.57V194.8H77.1971V202H75.5471ZM83.9633 202V197.845C83.9633 197.365 83.8083 196.97 83.4983 196.66C83.1983 196.35 82.8083 196.195 82.3283 196.195C82.0083 196.195 81.7233 196.265 81.4733 196.405C81.2233 196.545 81.0283 196.74 80.8883 196.99C80.7483 197.24 80.6783 197.525 80.6783 197.845L80.0333 197.485C80.0333 196.935 80.1533 196.45 80.3933 196.03C80.6333 195.6 80.9633 195.265 81.3833 195.025C81.8133 194.775 82.2933 194.65 82.8233 194.65C83.3633 194.65 83.8433 194.79 84.2633 195.07C84.6833 195.34 85.0133 195.695 85.2533 196.135C85.4933 196.565 85.6133 197.015 85.6133 197.485V202H83.9633ZM79.0283 202V194.8H80.6783V202H79.0283Z" fill="black"/>
<path d="M115.14 202V191.5H116.865V202H115.14ZM116.325 197.5V195.925H121.665V197.5H116.325ZM116.325 193.075V191.5H121.92V193.075H116.325ZM126.492 202.15C125.772 202.15 125.122 201.99 124.542 201.67C123.972 201.34 123.517 200.89 123.177 200.32C122.847 199.75 122.682 199.11 122.682 198.4C122.682 197.69 122.847 197.055 123.177 196.495C123.507 195.925 123.952 195.475 124.512 195.145C125.082 194.815 125.712 194.65 126.402 194.65C127.072 194.65 127.662 194.805 128.172 195.115C128.692 195.425 129.097 195.85 129.387 196.39C129.687 196.93 129.837 197.545 129.837 198.235C129.837 198.355 129.827 198.48 129.807 198.61C129.797 198.73 129.777 198.865 129.747 199.015H123.837V197.665H128.892L128.277 198.205C128.257 197.765 128.172 197.395 128.022 197.095C127.872 196.795 127.657 196.565 127.377 196.405C127.107 196.245 126.772 196.165 126.372 196.165C125.952 196.165 125.587 196.255 125.277 196.435C124.967 196.615 124.727 196.87 124.557 197.2C124.387 197.52 124.302 197.905 124.302 198.355C124.302 198.805 124.392 199.2 124.572 199.54C124.752 199.88 125.007 200.145 125.337 200.335C125.667 200.515 126.047 200.605 126.477 200.605C126.847 200.605 127.187 200.54 127.497 200.41C127.817 200.28 128.087 200.09 128.307 199.84L129.357 200.905C129.007 201.315 128.582 201.625 128.082 201.835C127.582 202.045 127.052 202.15 126.492 202.15ZM133.473 202L130.188 194.8H132.018L134.523 200.665H133.443L135.963 194.8H137.718L134.433 202H133.473Z" fill="black"/>
<path d="M167.14 202V191.5H168.34L172.705 198.685H171.925L176.29 191.5H177.49V202H175.765V194.53L176.155 194.635L172.915 199.96H171.715L168.475 194.635L168.865 194.53V202H167.14ZM182.557 202.15C181.907 202.15 181.317 201.985 180.787 201.655C180.267 201.325 179.852 200.88 179.542 200.32C179.242 199.75 179.092 199.115 179.092 198.415C179.092 197.705 179.242 197.07 179.542 196.51C179.852 195.94 180.267 195.49 180.787 195.16C181.317 194.82 181.907 194.65 182.557 194.65C183.107 194.65 183.592 194.77 184.012 195.01C184.442 195.24 184.782 195.56 185.032 195.97C185.282 196.38 185.407 196.845 185.407 197.365V199.435C185.407 199.955 185.282 200.42 185.032 200.83C184.792 201.24 184.457 201.565 184.027 201.805C183.597 202.035 183.107 202.15 182.557 202.15ZM182.827 200.59C183.437 200.59 183.927 200.385 184.297 199.975C184.677 199.565 184.867 199.04 184.867 198.4C184.867 197.97 184.782 197.59 184.612 197.26C184.442 196.93 184.202 196.675 183.892 196.495C183.592 196.305 183.237 196.21 182.827 196.21C182.427 196.21 182.072 196.305 181.762 196.495C181.462 196.675 181.222 196.93 181.042 197.26C180.872 197.59 180.787 197.97 180.787 198.4C180.787 198.83 180.872 199.21 181.042 199.54C181.222 199.87 181.462 200.13 181.762 200.32C182.072 200.5 182.427 200.59 182.827 200.59ZM184.762 202V200.065L185.047 198.31L184.762 196.57V194.8H186.412V202H184.762ZM188.243 202V194.8H189.893V202H188.243ZM189.893 197.995L189.323 197.71C189.323 196.8 189.523 196.065 189.923 195.505C190.333 194.935 190.948 194.65 191.768 194.65C192.128 194.65 192.453 194.715 192.743 194.845C193.033 194.975 193.303 195.185 193.553 195.475L192.473 196.585C192.343 196.445 192.198 196.345 192.038 196.285C191.878 196.225 191.693 196.195 191.483 196.195C191.023 196.195 190.643 196.34 190.343 196.63C190.043 196.92 189.893 197.375 189.893 197.995Z" fill="black"/>
<path d="M220.36 202L224.68 191.5H225.88L230.17 202H228.31L224.95 193.495H225.58L222.19 202H220.36ZM222.49 199.975V198.475H228.055V199.975H222.49ZM235.302 202.15C234.752 202.15 234.262 202.035 233.832 201.805C233.402 201.565 233.062 201.24 232.812 200.83C232.572 200.42 232.452 199.955 232.452 199.435V197.365C232.452 196.845 232.577 196.38 232.827 195.97C233.077 195.56 233.417 195.24 233.847 195.01C234.277 194.77 234.762 194.65 235.302 194.65C235.952 194.65 236.537 194.82 237.057 195.16C237.587 195.49 238.002 195.94 238.302 196.51C238.612 197.07 238.767 197.705 238.767 198.415C238.767 199.115 238.612 199.75 238.302 200.32C238.002 200.88 237.587 201.325 237.057 201.655C236.537 201.985 235.952 202.15 235.302 202.15ZM235.032 200.59C235.432 200.59 235.782 200.5 236.082 200.32C236.392 200.13 236.632 199.87 236.802 199.54C236.982 199.21 237.072 198.83 237.072 198.4C237.072 197.97 236.982 197.59 236.802 197.26C236.632 196.93 236.392 196.675 236.082 196.495C235.782 196.305 235.432 196.21 235.032 196.21C234.632 196.21 234.277 196.305 233.967 196.495C233.657 196.675 233.417 196.93 233.247 197.26C233.077 197.59 232.992 197.97 232.992 198.4C232.992 198.83 233.077 199.21 233.247 199.54C233.417 199.87 233.657 200.13 233.967 200.32C234.277 200.5 234.632 200.59 235.032 200.59ZM231.447 205V194.8H233.097V196.735L232.812 198.49L233.097 200.23V205H231.447ZM240.148 202V194.8H241.798V202H240.148ZM241.798 197.995L241.228 197.71C241.228 196.8 241.428 196.065 241.828 195.505C242.238 194.935 242.853 194.65 243.673 194.65C244.033 194.65 244.358 194.715 244.648 194.845C244.938 194.975 245.208 195.185 245.458 195.475L244.378 196.585C244.248 196.445 244.103 196.345 243.943 196.285C243.783 196.225 243.598 196.195 243.388 196.195C242.928 196.195 242.548 196.34 242.248 196.63C241.948 196.92 241.798 197.375 241.798 197.995Z" fill="black"/>
<path d="M273.14 202V191.5H274.34L278.705 198.685H277.925L282.29 191.5H283.49V202H281.765V194.53L282.155 194.635L278.915 199.96H277.715L274.475 194.635L274.865 194.53V202H273.14ZM288.557 202.15C287.907 202.15 287.317 201.985 286.787 201.655C286.267 201.325 285.852 200.88 285.542 200.32C285.242 199.75 285.092 199.115 285.092 198.415C285.092 197.705 285.242 197.07 285.542 196.51C285.852 195.94 286.267 195.49 286.787 195.16C287.317 194.82 287.907 194.65 288.557 194.65C289.107 194.65 289.592 194.77 290.012 195.01C290.442 195.24 290.782 195.56 291.032 195.97C291.282 196.38 291.407 196.845 291.407 197.365V199.435C291.407 199.955 291.282 200.42 291.032 200.83C290.792 201.24 290.457 201.565 290.027 201.805C289.597 202.035 289.107 202.15 288.557 202.15ZM288.827 200.59C289.437 200.59 289.927 200.385 290.297 199.975C290.677 199.565 290.867 199.04 290.867 198.4C290.867 197.97 290.782 197.59 290.612 197.26C290.442 196.93 290.202 196.675 289.892 196.495C289.592 196.305 289.237 196.21 288.827 196.21C288.427 196.21 288.072 196.305 287.762 196.495C287.462 196.675 287.222 196.93 287.042 197.26C286.872 197.59 286.787 197.97 286.787 198.4C286.787 198.83 286.872 199.21 287.042 199.54C287.222 199.87 287.462 200.13 287.762 200.32C288.072 200.5 288.427 200.59 288.827 200.59ZM290.762 202V200.065L291.047 198.31L290.762 196.57V194.8H292.412V202H290.762ZM296.568 202.075L293.493 194.8H295.308L297.408 200.14H296.883L299.103 194.8H300.933L297.588 202.075H296.568ZM294.423 205L296.658 200.395L297.588 202.075L296.253 205H294.423Z" fill="black"/>
<path d="M332.12 202.15C331.51 202.15 330.965 202.03 330.485 201.79C330.015 201.54 329.635 201.21 329.345 200.8L330.56 199.69C330.73 199.95 330.945 200.15 331.205 200.29C331.465 200.43 331.75 200.5 332.06 200.5C332.4 200.5 332.69 200.43 332.93 200.29C333.17 200.15 333.355 199.95 333.485 199.69C333.615 199.43 333.68 199.12 333.68 198.76V191.5H335.405V198.625C335.405 199.325 335.265 199.94 334.985 200.47C334.715 201 334.335 201.415 333.845 201.715C333.355 202.005 332.78 202.15 332.12 202.15ZM340.282 202.15C339.672 202.15 339.127 202.015 338.647 201.745C338.177 201.475 337.807 201.105 337.537 200.635C337.277 200.155 337.147 199.605 337.147 198.985V194.8H338.797V198.91C338.797 199.26 338.852 199.56 338.962 199.81C339.082 200.05 339.252 200.235 339.472 200.365C339.702 200.495 339.972 200.56 340.282 200.56C340.762 200.56 341.127 200.42 341.377 200.14C341.637 199.85 341.767 199.44 341.767 198.91V194.8H343.417V198.985C343.417 199.615 343.282 200.17 343.012 200.65C342.752 201.12 342.387 201.49 341.917 201.76C341.447 202.02 340.902 202.15 340.282 202.15ZM350.011 202V197.845C350.011 197.365 349.856 196.97 349.546 196.66C349.246 196.35 348.856 196.195 348.376 196.195C348.056 196.195 347.771 196.265 347.521 196.405C347.271 196.545 347.076 196.74 346.936 196.99C346.796 197.24 346.726 197.525 346.726 197.845L346.081 197.485C346.081 196.935 346.201 196.45 346.441 196.03C346.681 195.6 347.011 195.265 347.431 195.025C347.861 194.775 348.341 194.65 348.871 194.65C349.411 194.65 349.891 194.79 350.311 195.07C350.731 195.34 351.061 195.695 351.301 196.135C351.541 196.565 351.661 197.015 351.661 197.485V202H350.011ZM345.076 202V194.8H346.726V202H345.076Z" fill="black"/>
<path d="M385.12 202.15C384.51 202.15 383.965 202.03 383.485 201.79C383.015 201.54 382.635 201.21 382.345 200.8L383.56 199.69C383.73 199.95 383.945 200.15 384.205 200.29C384.465 200.43 384.75 200.5 385.06 200.5C385.4 200.5 385.69 200.43 385.93 200.29C386.17 200.15 386.355 199.95 386.485 199.69C386.615 199.43 386.68 199.12 386.68 198.76V191.5H388.405V198.625C388.405 199.325 388.265 199.94 387.985 200.47C387.715 201 387.335 201.415 386.845 201.715C386.355 202.005 385.78 202.15 385.12 202.15ZM393.282 202.15C392.672 202.15 392.127 202.015 391.647 201.745C391.177 201.475 390.807 201.105 390.537 200.635C390.277 200.155 390.147 199.605 390.147 198.985V194.8H391.797V198.91C391.797 199.26 391.852 199.56 391.962 199.81C392.082 200.05 392.252 200.235 392.472 200.365C392.702 200.495 392.972 200.56 393.282 200.56C393.762 200.56 394.127 200.42 394.377 200.14C394.637 199.85 394.767 199.44 394.767 198.91V194.8H396.417V198.985C396.417 199.615 396.282 200.17 396.012 200.65C395.752 201.12 395.387 201.49 394.917 201.76C394.447 202.02 393.902 202.15 393.282 202.15ZM398.076 202V191.2H399.726V202H398.076Z" fill="black"/>
<path d="M426.36 202L430.68 191.5H431.88L436.17 202H434.31L430.95 193.495H431.58L428.19 202H426.36ZM428.49 199.975V198.475H434.055V199.975H428.49ZM440.139 202.15C439.529 202.15 438.984 202.015 438.504 201.745C438.034 201.475 437.664 201.105 437.394 200.635C437.134 200.155 437.004 199.605 437.004 198.985V194.8H438.654V198.91C438.654 199.26 438.709 199.56 438.819 199.81C438.939 200.05 439.109 200.235 439.329 200.365C439.559 200.495 439.829 200.56 440.139 200.56C440.619 200.56 440.984 200.42 441.234 200.14C441.494 199.85 441.624 199.44 441.624 198.91V194.8H443.274V198.985C443.274 199.615 443.139 200.17 442.869 200.65C442.609 201.12 442.244 201.49 441.774 201.76C441.304 202.02 440.759 202.15 440.139 202.15ZM447.933 205.15C447.173 205.15 446.508 205.01 445.938 204.73C445.368 204.46 444.908 204.075 444.558 203.575L445.638 202.495C445.928 202.855 446.258 203.125 446.628 203.305C446.998 203.485 447.443 203.575 447.963 203.575C448.613 203.575 449.128 203.405 449.508 203.065C449.888 202.735 450.078 202.28 450.078 201.7V199.93L450.363 198.34L450.078 196.735V194.8H451.728V201.7C451.728 202.39 451.568 202.99 451.248 203.5C450.928 204.02 450.483 204.425 449.913 204.715C449.343 205.005 448.683 205.15 447.933 205.15ZM447.858 201.85C447.218 201.85 446.638 201.695 446.118 201.385C445.608 201.065 445.203 200.63 444.903 200.08C444.613 199.53 444.468 198.915 444.468 198.235C444.468 197.555 444.613 196.945 444.903 196.405C445.203 195.865 445.608 195.44 446.118 195.13C446.638 194.81 447.218 194.65 447.858 194.65C448.428 194.65 448.928 194.765 449.358 194.995C449.788 195.225 450.123 195.545 450.363 195.955C450.603 196.355 450.723 196.825 450.723 197.365V199.135C450.723 199.665 450.598 200.135 450.348 200.545C450.108 200.955 449.773 201.275 449.343 201.505C448.913 201.735 448.418 201.85 447.858 201.85ZM448.188 200.29C448.588 200.29 448.938 200.205 449.238 200.035C449.538 199.865 449.768 199.63 449.928 199.33C450.098 199.02 450.183 198.66 450.183 198.25C450.183 197.84 450.098 197.485 449.928 197.185C449.768 196.875 449.538 196.635 449.238 196.465C448.938 196.295 448.588 196.21 448.188 196.21C447.788 196.21 447.433 196.295 447.123 196.465C446.823 196.635 446.588 196.875 446.418 197.185C446.248 197.485 446.163 197.84 446.163 198.25C446.163 198.65 446.248 199.005 446.418 199.315C446.588 199.625 446.823 199.865 447.123 200.035C447.433 200.205 447.788 200.29 448.188 200.29Z" fill="black"/>
<path d="M488.065 202.15C487.235 202.15 486.53 202 485.95 201.7C485.37 201.4 484.85 200.96 484.39 200.38L485.56 199.21C485.85 199.63 486.195 199.96 486.595 200.2C486.995 200.43 487.505 200.545 488.125 200.545C488.705 200.545 489.165 200.425 489.505 200.185C489.855 199.945 490.03 199.615 490.03 199.195C490.03 198.845 489.94 198.56 489.76 198.34C489.58 198.12 489.34 197.94 489.04 197.8C488.75 197.65 488.425 197.52 488.065 197.41C487.715 197.29 487.36 197.16 487 197.02C486.65 196.87 486.325 196.685 486.025 196.465C485.735 196.245 485.5 195.96 485.32 195.61C485.14 195.26 485.05 194.815 485.05 194.275C485.05 193.655 485.2 193.13 485.5 192.7C485.81 192.26 486.225 191.925 486.745 191.695C487.265 191.465 487.845 191.35 488.485 191.35C489.175 191.35 489.79 191.485 490.33 191.755C490.88 192.025 491.325 192.37 491.665 192.79L490.495 193.96C490.195 193.62 489.88 193.37 489.55 193.21C489.23 193.04 488.86 192.955 488.44 192.955C487.92 192.955 487.51 193.06 487.21 193.27C486.92 193.48 486.775 193.775 486.775 194.155C486.775 194.475 486.865 194.735 487.045 194.935C487.225 195.125 487.46 195.29 487.75 195.43C488.05 195.56 488.375 195.685 488.725 195.805C489.085 195.925 489.44 196.06 489.79 196.21C490.15 196.36 490.475 196.555 490.765 196.795C491.065 197.025 491.305 197.325 491.485 197.695C491.665 198.065 491.755 198.53 491.755 199.09C491.755 200.03 491.42 200.775 490.75 201.325C490.09 201.875 489.195 202.15 488.065 202.15ZM496.507 202.15C495.787 202.15 495.137 201.99 494.557 201.67C493.987 201.34 493.532 200.89 493.192 200.32C492.862 199.75 492.697 199.11 492.697 198.4C492.697 197.69 492.862 197.055 493.192 196.495C493.522 195.925 493.967 195.475 494.527 195.145C495.097 194.815 495.727 194.65 496.417 194.65C497.087 194.65 497.677 194.805 498.187 195.115C498.707 195.425 499.112 195.85 499.402 196.39C499.702 196.93 499.852 197.545 499.852 198.235C499.852 198.355 499.842 198.48 499.822 198.61C499.812 198.73 499.792 198.865 499.762 199.015H493.852V197.665H498.907L498.292 198.205C498.272 197.765 498.187 197.395 498.037 197.095C497.887 196.795 497.672 196.565 497.392 196.405C497.122 196.245 496.787 196.165 496.387 196.165C495.967 196.165 495.602 196.255 495.292 196.435C494.982 196.615 494.742 196.87 494.572 197.2C494.402 197.52 494.317 197.905 494.317 198.355C494.317 198.805 494.407 199.2 494.587 199.54C494.767 199.88 495.022 200.145 495.352 200.335C495.682 200.515 496.062 200.605 496.492 200.605C496.862 200.605 497.202 200.54 497.512 200.41C497.832 200.28 498.102 200.09 498.322 199.84L499.372 200.905C499.022 201.315 498.597 201.625 498.097 201.835C497.597 202.045 497.067 202.15 496.507 202.15ZM505.03 202.15C504.48 202.15 503.99 202.035 503.56 201.805C503.13 201.565 502.79 201.24 502.54 200.83C502.3 200.42 502.18 199.955 502.18 199.435V197.365C502.18 196.845 502.305 196.38 502.555 195.97C502.805 195.56 503.145 195.24 503.575 195.01C504.005 194.77 504.49 194.65 505.03 194.65C505.68 194.65 506.265 194.82 506.785 195.16C507.315 195.49 507.73 195.94 508.03 196.51C508.34 197.07 508.495 197.705 508.495 198.415C508.495 199.115 508.34 199.75 508.03 200.32C507.73 200.88 507.315 201.325 506.785 201.655C506.265 201.985 505.68 202.15 505.03 202.15ZM504.76 200.59C505.16 200.59 505.51 200.5 505.81 200.32C506.12 200.13 506.36 199.87 506.53 199.54C506.71 199.21 506.8 198.83 506.8 198.4C506.8 197.97 506.71 197.59 506.53 197.26C506.36 196.93 506.12 196.675 505.81 196.495C505.51 196.305 505.16 196.21 504.76 196.21C504.36 196.21 504.005 196.305 503.695 196.495C503.385 196.675 503.145 196.93 502.975 197.26C502.805 197.59 502.72 197.97 502.72 198.4C502.72 198.83 502.805 199.21 502.975 199.54C503.145 199.87 503.385 200.13 503.695 200.32C504.005 200.5 504.36 200.59 504.76 200.59ZM501.175 205V194.8H502.825V196.735L502.54 198.49L502.825 200.23V205H501.175Z" fill="black"/>
<path d="M540.97 202.15C540.22 202.15 539.52 202.01 538.87 201.73C538.22 201.45 537.65 201.065 537.16 200.575C536.67 200.075 536.285 199.5 536.005 198.85C535.735 198.19 535.6 197.485 535.6 196.735C535.6 195.985 535.735 195.285 536.005 194.635C536.285 193.985 536.665 193.415 537.145 192.925C537.635 192.425 538.2 192.04 538.84 191.77C539.49 191.49 540.19 191.35 540.94 191.35C541.69 191.35 542.385 191.49 543.025 191.77C543.675 192.04 544.245 192.425 544.735 192.925C545.225 193.415 545.605 193.99 545.875 194.65C546.155 195.3 546.295 196 546.295 196.75C546.295 197.5 546.155 198.205 545.875 198.865C545.605 199.515 545.225 200.085 544.735 200.575C544.255 201.065 543.69 201.45 543.04 201.73C542.4 202.01 541.71 202.15 540.97 202.15ZM540.94 200.5C541.65 200.5 542.27 200.34 542.8 200.02C543.34 199.7 543.76 199.26 544.06 198.7C544.37 198.13 544.525 197.475 544.525 196.735C544.525 196.185 544.435 195.685 544.255 195.235C544.085 194.775 543.84 194.38 543.52 194.05C543.2 193.71 542.82 193.45 542.38 193.27C541.95 193.09 541.47 193 540.94 193C540.24 193 539.62 193.16 539.08 193.48C538.55 193.79 538.13 194.225 537.82 194.785C537.52 195.345 537.37 195.995 537.37 196.735C537.37 197.285 537.455 197.795 537.625 198.265C537.805 198.725 538.05 199.12 538.36 199.45C538.68 199.78 539.06 200.04 539.5 200.23C539.94 200.41 540.42 200.5 540.94 200.5ZM551.139 202.15C550.429 202.15 549.784 201.985 549.204 201.655C548.634 201.325 548.184 200.875 547.854 200.305C547.524 199.735 547.359 199.1 547.359 198.4C547.359 197.69 547.524 197.055 547.854 196.495C548.184 195.925 548.634 195.475 549.204 195.145C549.784 194.815 550.429 194.65 551.139 194.65C551.699 194.65 552.219 194.76 552.699 194.98C553.189 195.19 553.604 195.495 553.944 195.895L552.864 196.99C552.654 196.74 552.399 196.555 552.099 196.435C551.809 196.305 551.489 196.24 551.139 196.24C550.729 196.24 550.364 196.335 550.044 196.525C549.734 196.705 549.489 196.955 549.309 197.275C549.139 197.595 549.054 197.97 549.054 198.4C549.054 198.82 549.139 199.195 549.309 199.525C549.489 199.845 549.734 200.1 550.044 200.29C550.364 200.47 550.729 200.56 551.139 200.56C551.489 200.56 551.809 200.5 552.099 200.38C552.399 200.25 552.654 200.06 552.864 199.81L553.944 200.905C553.604 201.305 553.189 201.615 552.699 201.835C552.219 202.045 551.699 202.15 551.139 202.15ZM556.112 202V191.8H557.762V202H556.112ZM554.387 196.3V194.8H559.487V196.3H554.387Z" fill="black"/>
<path d="M587.14 202V191.5H588.34L588.865 193.48V202H587.14ZM594.415 202L588.13 193.795L588.34 191.5L594.625 199.705L594.415 202ZM594.415 202L593.89 200.155V191.5H595.615V202H594.415ZM600.967 202.15C600.267 202.15 599.632 201.985 599.062 201.655C598.492 201.315 598.037 200.86 597.697 200.29C597.367 199.72 597.202 199.085 597.202 198.385C597.202 197.685 597.367 197.055 597.697 196.495C598.037 195.935 598.492 195.49 599.062 195.16C599.632 194.82 600.267 194.65 600.967 194.65C601.677 194.65 602.317 194.815 602.887 195.145C603.457 195.475 603.907 195.925 604.237 196.495C604.577 197.055 604.747 197.685 604.747 198.385C604.747 199.085 604.577 199.72 604.237 200.29C603.907 200.86 603.457 201.315 602.887 201.655C602.317 201.985 601.677 202.15 600.967 202.15ZM600.967 200.56C601.377 200.56 601.737 200.47 602.047 200.29C602.367 200.1 602.612 199.84 602.782 199.51C602.962 199.18 603.052 198.805 603.052 198.385C603.052 197.965 602.962 197.595 602.782 197.275C602.602 196.955 602.357 196.705 602.047 196.525C601.737 196.335 601.377 196.24 600.967 196.24C600.567 196.24 600.207 196.335 599.887 196.525C599.577 196.705 599.332 196.955 599.152 197.275C598.982 197.595 598.897 197.965 598.897 198.385C598.897 198.805 598.982 199.18 599.152 199.51C599.332 199.84 599.577 200.1 599.887 200.29C600.207 200.47 600.567 200.56 600.967 200.56ZM608.315 202L605.03 194.8H606.86L609.365 200.665H608.285L610.805 194.8H612.56L609.275 202H608.315Z" fill="black"/>
<path d="M642.325 202V200.425H645.085C645.805 200.425 646.435 200.27 646.975 199.96C647.525 199.65 647.95 199.22 648.25 198.67C648.56 198.11 648.715 197.465 648.715 196.735C648.715 196.015 648.56 195.38 648.25 194.83C647.94 194.28 647.51 193.85 646.96 193.54C646.42 193.23 645.795 193.075 645.085 193.075H642.325V191.5H645.13C645.89 191.5 646.595 191.635 647.245 191.905C647.895 192.165 648.46 192.535 648.94 193.015C649.43 193.485 649.81 194.04 650.08 194.68C650.35 195.31 650.485 196 650.485 196.75C650.485 197.49 650.35 198.18 650.08 198.82C649.81 199.46 649.435 200.02 648.955 200.5C648.475 200.97 647.91 201.34 647.26 201.61C646.61 201.87 645.91 202 645.16 202H642.325ZM641.14 202V191.5H642.865V202H641.14ZM655.364 202.15C654.644 202.15 653.994 201.99 653.414 201.67C652.844 201.34 652.389 200.89 652.049 200.32C651.719 199.75 651.554 199.11 651.554 198.4C651.554 197.69 651.719 197.055 652.049 196.495C652.379 195.925 652.824 195.475 653.384 195.145C653.954 194.815 654.584 194.65 655.274 194.65C655.944 194.65 656.534 194.805 657.044 195.115C657.564 195.425 657.969 195.85 658.259 196.39C658.559 196.93 658.709 197.545 658.709 198.235C658.709 198.355 658.699 198.48 658.679 198.61C658.669 198.73 658.649 198.865 658.619 199.015H652.709V197.665H657.764L657.149 198.205C657.129 197.765 657.044 197.395 656.894 197.095C656.744 196.795 656.529 196.565 656.249 196.405C655.979 196.245 655.644 196.165 655.244 196.165C654.824 196.165 654.459 196.255 654.149 196.435C653.839 196.615 653.599 196.87 653.429 197.2C653.259 197.52 653.174 197.905 653.174 198.355C653.174 198.805 653.264 199.2 653.444 199.54C653.624 199.88 653.879 200.145 654.209 200.335C654.539 200.515 654.919 200.605 655.349 200.605C655.719 200.605 656.059 200.54 656.369 200.41C656.689 200.28 656.959 200.09 657.179 199.84L658.229 200.905C657.879 201.315 657.454 201.625 656.954 201.835C656.454 202.045 655.924 202.15 655.364 202.15ZM663.346 202.15C662.636 202.15 661.991 201.985 661.411 201.655C660.841 201.325 660.391 200.875 660.061 200.305C659.731 199.735 659.566 199.1 659.566 198.4C659.566 197.69 659.731 197.055 660.061 196.495C660.391 195.925 660.841 195.475 661.411 195.145C661.991 194.815 662.636 194.65 663.346 194.65C663.906 194.65 664.426 194.76 664.906 194.98C665.396 195.19 665.811 195.495 666.151 195.895L665.071 196.99C664.861 196.74 664.606 196.555 664.306 196.435C664.016 196.305 663.696 196.24 663.346 196.24C662.936 196.24 662.571 196.335 662.251 196.525C661.941 196.705 661.696 196.955 661.516 197.275C661.346 197.595 661.261 197.97 661.261 198.4C661.261 198.82 661.346 199.195 661.516 199.525C661.696 199.845 661.941 200.1 662.251 200.29C662.571 200.47 662.936 200.56 663.346 200.56C663.696 200.56 664.016 200.5 664.306 200.38C664.606 200.25 664.861 200.06 665.071 199.81L666.151 200.905C665.811 201.305 665.396 201.615 664.906 201.835C664.426 202.045 663.906 202.15 663.346 202.15Z" fill="black"/>
<path d="M8.705 144.15C7.975 144.15 7.325 144.025 6.755 143.775C6.185 143.515 5.705 143.14 5.315 142.65L6.485 141.48C6.695 141.8 6.99 142.055 7.37 142.245C7.76 142.435 8.195 142.53 8.675 142.53C9.115 142.53 9.5 142.45 9.83 142.29C10.16 142.13 10.42 141.9 10.61 141.6C10.8 141.3 10.895 140.945 10.895 140.535C10.895 140.105 10.8 139.75 10.61 139.47C10.43 139.18 10.185 138.965 9.875 138.825C9.575 138.675 9.25 138.6 8.9 138.6C8.5 138.6 8.14 138.645 7.82 138.735C7.51 138.825 7.205 138.985 6.905 139.215L6.95 138.135C7.11 137.925 7.295 137.755 7.505 137.625C7.715 137.485 7.96 137.38 8.24 137.31C8.52 137.24 8.85 137.205 9.23 137.205C9.97 137.205 10.59 137.36 11.09 137.67C11.6 137.98 11.985 138.395 12.245 138.915C12.505 139.425 12.635 139.995 12.635 140.625C12.635 141.305 12.465 141.91 12.125 142.44C11.795 142.97 11.335 143.39 10.745 143.7C10.155 144 9.475 144.15 8.705 144.15ZM6.905 139.215L5.96 138.27L6.425 133.5H8L7.46 138.465L6.905 139.215ZM6.725 135.045L6.425 133.5H12.05V135.045H6.725ZM18.1088 144.15C17.3188 144.15 16.5938 143.93 15.9338 143.49C15.2838 143.04 14.7638 142.41 14.3738 141.6C13.9838 140.79 13.7888 139.835 13.7888 138.735C13.7888 137.635 13.9788 136.685 14.3588 135.885C14.7488 135.075 15.2688 134.45 15.9188 134.01C16.5688 133.57 17.2888 133.35 18.0788 133.35C18.8788 133.35 19.6038 133.57 20.2538 134.01C20.9038 134.45 21.4188 135.075 21.7988 135.885C22.1888 136.685 22.3838 137.64 22.3838 138.75C22.3838 139.85 22.1888 140.805 21.7988 141.615C21.4188 142.425 20.9038 143.05 20.2538 143.49C19.6138 143.93 18.8988 144.15 18.1088 144.15ZM18.0788 142.53C18.5988 142.53 19.0488 142.39 19.4288 142.11C19.8088 141.83 20.1038 141.41 20.3138 140.85C20.5338 140.29 20.6438 139.585 20.6438 138.735C20.6438 137.895 20.5338 137.195 20.3138 136.635C20.1038 136.075 19.8038 135.66 19.4138 135.39C19.0338 135.11 18.5888 134.97 18.0788 134.97C17.5688 134.97 17.1188 135.11 16.7288 135.39C16.3488 135.66 16.0538 136.075 15.8438 136.635C15.6338 137.185 15.5288 137.885 15.5288 138.735C15.5288 139.585 15.6338 140.29 15.8438 140.85C16.0538 141.41 16.3488 141.83 16.7288 142.11C17.1188 142.39 17.5688 142.53 18.0788 142.53ZM27.9379 144.15C27.1479 144.15 26.4229 143.93 25.7629 143.49C25.1129 143.04 24.5929 142.41 24.2029 141.6C23.8129 140.79 23.6179 139.835 23.6179 138.735C23.6179 137.635 23.8079 136.685 24.1879 135.885C24.5779 135.075 25.0979 134.45 25.7479 134.01C26.3979 133.57 27.1179 133.35 27.9079 133.35C28.7079 133.35 29.4329 133.57 30.0829 134.01C30.7329 134.45 31.2479 135.075 31.6279 135.885C32.0179 136.685 32.2129 137.64 32.2129 138.75C32.2129 139.85 32.0179 140.805 31.6279 141.615C31.2479 142.425 30.7329 143.05 30.0829 143.49C29.4429 143.93 28.7279 144.15 27.9379 144.15ZM27.9079 142.53C28.4279 142.53 28.8779 142.39 29.2579 142.11C29.6379 141.83 29.9329 141.41 30.1429 140.85C30.3629 140.29 30.4729 139.585 30.4729 138.735C30.4729 137.895 30.3629 137.195 30.1429 136.635C29.9329 136.075 29.6329 135.66 29.2429 135.39C28.8629 135.11 28.4179 134.97 27.9079 134.97C27.3979 134.97 26.9479 135.11 26.5579 135.39C26.1779 135.66 25.8829 136.075 25.6729 136.635C25.4629 137.185 25.3579 137.885 25.3579 138.735C25.3579 139.585 25.4629 140.29 25.6729 140.85C25.8829 141.41 26.1779 141.83 26.5579 142.11C26.9479 142.39 27.3979 142.53 27.9079 142.53Z" fill="#ACACAC"/>
<path d="M4.49 101V90.5H6.185V101H4.49ZM2.39 92.045V90.5H6.035V92.045H2.39ZM12.267 101.15C11.477 101.15 10.752 100.93 10.092 100.49C9.44203 100.04 8.92203 99.41 8.53203 98.6C8.14203 97.79 7.94703 96.835 7.94703 95.735C7.94703 94.635 8.13703 93.685 8.51703 92.885C8.90703 92.075 9.42703 91.45 10.077 91.01C10.727 90.57 11.447 90.35 12.237 90.35C13.037 90.35 13.762 90.57 14.412 91.01C15.062 91.45 15.577 92.075 15.957 92.885C16.347 93.685 16.542 94.64 16.542 95.75C16.542 96.85 16.347 97.805 15.957 98.615C15.577 99.425 15.062 100.05 14.412 100.49C13.772 100.93 13.057 101.15 12.267 101.15ZM12.237 99.53C12.757 99.53 13.207 99.39 13.587 99.11C13.967 98.83 14.262 98.41 14.472 97.85C14.692 97.29 14.802 96.585 14.802 95.735C14.802 94.895 14.692 94.195 14.472 93.635C14.262 93.075 13.962 92.66 13.572 92.39C13.192 92.11 12.747 91.97 12.237 91.97C11.727 91.97 11.277 92.11 10.887 92.39C10.507 92.66 10.212 93.075 10.002 93.635C9.79203 94.185 9.68703 94.885 9.68703 95.735C9.68703 96.585 9.79203 97.29 10.002 97.85C10.212 98.41 10.507 98.83 10.887 99.11C11.277 99.39 11.727 99.53 12.237 99.53ZM22.0961 101.15C21.3061 101.15 20.5811 100.93 19.9211 100.49C19.2711 100.04 18.7511 99.41 18.3611 98.6C17.9711 97.79 17.7761 96.835 17.7761 95.735C17.7761 94.635 17.9661 93.685 18.3461 92.885C18.7361 92.075 19.2561 91.45 19.9061 91.01C20.5561 90.57 21.2761 90.35 22.0661 90.35C22.8661 90.35 23.5911 90.57 24.2411 91.01C24.8911 91.45 25.4061 92.075 25.7861 92.885C26.1761 93.685 26.3711 94.64 26.3711 95.75C26.3711 96.85 26.1761 97.805 25.7861 98.615C25.4061 99.425 24.8911 100.05 24.2411 100.49C23.6011 100.93 22.8861 101.15 22.0961 101.15ZM22.0661 99.53C22.5861 99.53 23.0361 99.39 23.4161 99.11C23.7961 98.83 24.0911 98.41 24.3011 97.85C24.5211 97.29 24.6311 96.585 24.6311 95.735C24.6311 94.895 24.5211 94.195 24.3011 93.635C24.0911 93.075 23.7911 92.66 23.4011 92.39C23.0211 92.11 22.5761 91.97 22.0661 91.97C21.5561 91.97 21.1061 92.11 20.7161 92.39C20.3361 92.66 20.0411 93.075 19.8311 93.635C19.6211 94.185 19.5161 94.885 19.5161 95.735C19.5161 96.585 19.6211 97.29 19.8311 97.85C20.0411 98.41 20.3361 98.83 20.7161 99.11C21.1061 99.39 21.5561 99.53 22.0661 99.53ZM31.9252 101.15C31.1352 101.15 30.4102 100.93 29.7502 100.49C29.1002 100.04 28.5802 99.41 28.1902 98.6C27.8002 97.79 27.6052 96.835 27.6052 95.735C27.6052 94.635 27.7952 93.685 28.1752 92.885C28.5652 92.075 29.0852 91.45 29.7352 91.01C30.3852 90.57 31.1052 90.35 31.8952 90.35C32.6952 90.35 33.4202 90.57 34.0702 91.01C34.7202 91.45 35.2352 92.075 35.6152 92.885C36.0052 93.685 36.2002 94.64 36.2002 95.75C36.2002 96.85 36.0052 97.805 35.6152 98.615C35.2352 99.425 34.7202 100.05 34.0702 100.49C33.4302 100.93 32.7152 101.15 31.9252 101.15ZM31.8952 99.53C32.4152 99.53 32.8652 99.39 33.2452 99.11C33.6252 98.83 33.9202 98.41 34.1302 97.85C34.3502 97.29 34.4602 96.585 34.4602 95.735C34.4602 94.895 34.3502 94.195 34.1302 93.635C33.9202 93.075 33.6202 92.66 33.2302 92.39C32.8502 92.11 32.4052 91.97 31.8952 91.97C31.3852 91.97 30.9352 92.11 30.5452 92.39C30.1652 92.66 29.8702 93.075 29.6602 93.635C29.4502 94.185 29.3452 94.885 29.3452 95.735C29.3452 96.585 29.4502 97.29 29.6602 97.85C29.8702 98.41 30.1652 98.83 30.5452 99.11C30.9352 99.39 31.3852 99.53 31.8952 99.53Z" fill="#ACACAC"/>
<path d="M4.49 58V47.5H6.185V58H4.49ZM2.39 49.045V47.5H6.035V49.045H2.39ZM11.037 58.15C10.307 58.15 9.65703 58.025 9.08703 57.775C8.51703 57.515 8.03703 57.14 7.64703 56.65L8.81703 55.48C9.02703 55.8 9.32203 56.055 9.70203 56.245C10.092 56.435 10.527 56.53 11.007 56.53C11.447 56.53 11.832 56.45 12.162 56.29C12.492 56.13 12.752 55.9 12.942 55.6C13.132 55.3 13.227 54.945 13.227 54.535C13.227 54.105 13.132 53.75 12.942 53.47C12.762 53.18 12.517 52.965 12.207 52.825C11.907 52.675 11.582 52.6 11.232 52.6C10.832 52.6 10.472 52.645 10.152 52.735C9.84203 52.825 9.53703 52.985 9.23703 53.215L9.28203 52.135C9.44203 51.925 9.62703 51.755 9.83703 51.625C10.047 51.485 10.292 51.38 10.572 51.31C10.852 51.24 11.182 51.205 11.562 51.205C12.302 51.205 12.922 51.36 13.422 51.67C13.932 51.98 14.317 52.395 14.577 52.915C14.837 53.425 14.967 53.995 14.967 54.625C14.967 55.305 14.797 55.91 14.457 56.44C14.127 56.97 13.667 57.39 13.077 57.7C12.487 58 11.807 58.15 11.037 58.15ZM9.23703 53.215L8.29203 52.27L8.75703 47.5H10.332L9.79203 52.465L9.23703 53.215ZM9.05703 49.045L8.75703 47.5H14.382V49.045H9.05703ZM20.4409 58.15C19.6509 58.15 18.9259 57.93 18.2659 57.49C17.6159 57.04 17.0959 56.41 16.7059 55.6C16.3159 54.79 16.1209 53.835 16.1209 52.735C16.1209 51.635 16.3109 50.685 16.6909 49.885C17.0809 49.075 17.6009 48.45 18.2509 48.01C18.9009 47.57 19.6209 47.35 20.4109 47.35C21.2109 47.35 21.9359 47.57 22.5859 48.01C23.2359 48.45 23.7509 49.075 24.1309 49.885C24.5209 50.685 24.7159 51.64 24.7159 52.75C24.7159 53.85 24.5209 54.805 24.1309 55.615C23.7509 56.425 23.2359 57.05 22.5859 57.49C21.9459 57.93 21.2309 58.15 20.4409 58.15ZM20.4109 56.53C20.9309 56.53 21.3809 56.39 21.7609 56.11C22.1409 55.83 22.4359 55.41 22.6459 54.85C22.8659 54.29 22.9759 53.585 22.9759 52.735C22.9759 51.895 22.8659 51.195 22.6459 50.635C22.4359 50.075 22.1359 49.66 21.7459 49.39C21.3659 49.11 20.9209 48.97 20.4109 48.97C19.9009 48.97 19.4509 49.11 19.0609 49.39C18.6809 49.66 18.3859 50.075 18.1759 50.635C17.9659 51.185 17.8609 51.885 17.8609 52.735C17.8609 53.585 17.9659 54.29 18.1759 54.85C18.3859 55.41 18.6809 55.83 19.0609 56.11C19.4509 56.39 19.9009 56.53 20.4109 56.53ZM30.27 58.15C29.48 58.15 28.755 57.93 28.095 57.49C27.445 57.04 26.925 56.41 26.535 55.6C26.145 54.79 25.95 53.835 25.95 52.735C25.95 51.635 26.14 50.685 26.52 49.885C26.91 49.075 27.43 48.45 28.08 48.01C28.73 47.57 29.45 47.35 30.24 47.35C31.04 47.35 31.765 47.57 32.415 48.01C33.065 48.45 33.58 49.075 33.96 49.885C34.35 50.685 34.545 51.64 34.545 52.75C34.545 53.85 34.35 54.805 33.96 55.615C33.58 56.425 33.065 57.05 32.415 57.49C31.775 57.93 31.06 58.15 30.27 58.15ZM30.24 56.53C30.76 56.53 31.21 56.39 31.59 56.11C31.97 55.83 32.265 55.41 32.475 54.85C32.695 54.29 32.805 53.585 32.805 52.735C32.805 51.895 32.695 51.195 32.475 50.635C32.265 50.075 31.965 49.66 31.575 49.39C31.195 49.11 30.75 48.97 30.24 48.97C29.73 48.97 29.28 49.11 28.89 49.39C28.51 49.66 28.215 50.075 28.005 50.635C27.795 51.185 27.69 51.885 27.69 52.735C27.69 53.585 27.795 54.29 28.005 54.85C28.215 55.41 28.51 55.83 28.89 56.11C29.28 56.39 29.73 56.53 30.24 56.53Z" fill="#ACACAC"/>
<path d="M0.42 13.98L4.29 9.87C4.61 9.53 4.87 9.225 5.07 8.955C5.27 8.685 5.415 8.43 5.505 8.19C5.595 7.95 5.64 7.705 5.64 7.455C5.64 6.985 5.485 6.62 5.175 6.36C4.875 6.09 4.49 5.955 4.02 5.955C3.52 5.955 3.08 6.08 2.7 6.33C2.32 6.58 1.98 6.97 1.68 7.5L0.48 6.51C0.89 5.8 1.395 5.265 1.995 4.905C2.595 4.535 3.29 4.35 4.08 4.35C4.73 4.35 5.3 4.48 5.79 4.74C6.28 5 6.66 5.365 6.93 5.835C7.2 6.295 7.335 6.83 7.335 7.44C7.335 7.88 7.28 8.275 7.17 8.625C7.07 8.965 6.895 9.31 6.645 9.66C6.395 10 6.05 10.4 5.61 10.86L2.64 13.935L0.42 13.98ZM0.42 15V13.98L1.905 13.455H7.545V15H0.42ZM13.0502 15.15C12.2602 15.15 11.5352 14.93 10.8752 14.49C10.2252 14.04 9.70523 13.41 9.31523 12.6C8.92523 11.79 8.73023 10.835 8.73023 9.735C8.73023 8.635 8.92023 7.685 9.30023 6.885C9.69023 6.075 10.2102 5.45 10.8602 5.01C11.5102 4.57 12.2302 4.35 13.0202 4.35C13.8202 4.35 14.5452 4.57 15.1952 5.01C15.8452 5.45 16.3602 6.075 16.7402 6.885C17.1302 7.685 17.3252 8.64 17.3252 9.75C17.3252 10.85 17.1302 11.805 16.7402 12.615C16.3602 13.425 15.8452 14.05 15.1952 14.49C14.5552 14.93 13.8402 15.15 13.0502 15.15ZM13.0202 13.53C13.5402 13.53 13.9902 13.39 14.3702 13.11C14.7502 12.83 15.0452 12.41 15.2552 11.85C15.4752 11.29 15.5852 10.585 15.5852 9.735C15.5852 8.895 15.4752 8.195 15.2552 7.635C15.0452 7.075 14.7452 6.66 14.3552 6.39C13.9752 6.11 13.5302 5.97 13.0202 5.97C12.5102 5.97 12.0602 6.11 11.6702 6.39C11.2902 6.66 10.9952 7.075 10.7852 7.635C10.5752 8.185 10.4702 8.885 10.4702 9.735C10.4702 10.585 10.5752 11.29 10.7852 11.85C10.9952 12.41 11.2902 12.83 11.6702 13.11C12.0602 13.39 12.5102 13.53 13.0202 13.53ZM22.8793 15.15C22.0893 15.15 21.3643 14.93 20.7043 14.49C20.0543 14.04 19.5343 13.41 19.1443 12.6C18.7543 11.79 18.5593 10.835 18.5593 9.735C18.5593 8.635 18.7493 7.685 19.1293 6.885C19.5193 6.075 20.0393 5.45 20.6893 5.01C21.3393 4.57 22.0593 4.35 22.8493 4.35C23.6493 4.35 24.3743 4.57 25.0243 5.01C25.6743 5.45 26.1893 6.075 26.5693 6.885C26.9593 7.685 27.1543 8.64 27.1543 9.75C27.1543 10.85 26.9593 11.805 26.5693 12.615C26.1893 13.425 25.6743 14.05 25.0243 14.49C24.3843 14.93 23.6693 15.15 22.8793 15.15ZM22.8493 13.53C23.3693 13.53 23.8193 13.39 24.1993 13.11C24.5793 12.83 24.8743 12.41 25.0843 11.85C25.3043 11.29 25.4143 10.585 25.4143 9.735C25.4143 8.895 25.3043 8.195 25.0843 7.635C24.8743 7.075 24.5743 6.66 24.1843 6.39C23.8043 6.11 23.3593 5.97 22.8493 5.97C22.3393 5.97 21.8893 6.11 21.4993 6.39C21.1193 6.66 20.8243 7.075 20.6143 7.635C20.4043 8.185 20.2993 8.885 20.2993 9.735C20.2993 10.585 20.4043 11.29 20.6143 11.85C20.8243 12.41 21.1193 12.83 21.4993 13.11C21.8893 13.39 22.3393 13.53 22.8493 13.53ZM32.7084 15.15C31.9184 15.15 31.1934 14.93 30.5334 14.49C29.8834 14.04 29.3634 13.41 28.9734 12.6C28.5834 11.79 28.3884 10.835 28.3884 9.735C28.3884 8.635 28.5784 7.685 28.9584 6.885C29.3484 6.075 29.8684 5.45 30.5184 5.01C31.1684 4.57 31.8884 4.35 32.6784 4.35C33.4784 4.35 34.2034 4.57 34.8534 5.01C35.5034 5.45 36.0184 6.075 36.3984 6.885C36.7884 7.685 36.9834 8.64 36.9834 9.75C36.9834 10.85 36.7884 11.805 36.3984 12.615C36.0184 13.425 35.5034 14.05 34.8534 14.49C34.2134 14.93 33.4984 15.15 32.7084 15.15ZM32.6784 13.53C33.1984 13.53 33.6484 13.39 34.0284 13.11C34.4084 12.83 34.7034 12.41 34.9134 11.85C35.1334 11.29 35.2434 10.585 35.2434 9.735C35.2434 8.895 35.1334 8.195 34.9134 7.635C34.7034 7.075 34.4034 6.66 34.0134 6.39C33.6334 6.11 33.1884 5.97 32.6784 5.97C32.1684 5.97 31.7184 6.11 31.3284 6.39C30.9484 6.66 30.6534 7.075 30.4434 7.635C30.2334 8.185 30.1284 8.885 30.1284 9.735C30.1284 10.585 30.2334 11.29 30.4434 11.85C30.6534 12.41 30.9484 12.83 31.3284 13.11C31.7184 13.39 32.1684 13.53 32.6784 13.53Z" fill="#ACACAC"/>
<rect x="64" y="85" width="19" height="96" fill="#7650E3"/>
<rect x="64" width="19" height="80" fill="#B7A3F0"/>
<rect x="118" y="156" width="19" height="25" fill="#7650E3"/>
<rect x="171" y="118" width="19" height="63" fill="#7650E3"/>
<rect x="225" y="122" width="19" height="59" fill="#7650E3"/>
<rect x="279" y="120" width="19" height="61" fill="#7650E3"/>
<rect x="333" y="85" width="19" height="96" fill="#7650E3"/>
<rect x="383" y="73" width="19" height="108" fill="#7650E3"/>
<rect x="433" y="152" width="19" height="29" fill="#7650E3"/>
<rect x="487" y="76" width="19" height="105" fill="#7650E3"/>
<rect x="539" y="95" width="19" height="86" fill="#7650E3"/>
<rect x="592" y="108" width="19" height="73" fill="#7650E3"/>
<rect x="646" y="85" width="19" height="96" fill="#7650E3"/>
<rect x="118" y="51" width="19" height="101" fill="#B7A3F0"/>
<rect x="171" y="19" width="19" height="94" fill="#B7A3F0"/>
<rect x="225" width="19" height="118" fill="#B7A3F0"/>
<rect x="279" y="67" width="19" height="50" fill="#B7A3F0"/>
<rect x="333" y="51" width="19" height="29" fill="#B7A3F0"/>
<rect x="383" y="30" width="19" height="39" fill="#B7A3F0"/>
<rect x="433" y="112" width="19" height="37" fill="#B7A3F0"/>
<rect x="487" y="43" width="19" height="30" fill="#B7A3F0"/>
<rect x="539" y="68" width="19" height="24" fill="#B7A3F0"/>
<rect x="592" y="43" width="19" height="61" fill="#B7A3F0"/>
<rect x="646" width="19" height="80" fill="#B7A3F0"/>
</svg>
