<svg width="166" height="166" viewBox="0 0 166 166" fill="none" xmlns="http://www.w3.org/2000/svg">
<path d="M165 83C165 68.5 161.155 54.2594 153.857 41.7297C146.56 29.2001 136.07 18.8297 123.458 11.6756C110.845 4.52148 96.5618 0.839628 82.0628 1.00536C67.5638 1.17109 53.3679 5.17847 40.9226 12.619C28.4772 20.0595 18.2273 30.667 11.2178 43.3602C4.20834 56.0533 0.689992 70.3782 1.02143 84.8743C1.35287 99.3705 5.52223 113.52 13.1045 125.879C20.6868 138.239 31.4108 148.367 44.1832 155.231L62.1715 121.758C55.318 118.075 49.5636 112.64 45.4951 106.008C41.4266 99.3764 39.1894 91.7842 39.0115 84.0057C38.8337 76.2273 40.7216 68.5408 44.4827 61.7298C48.2439 54.9189 53.7439 49.227 60.4219 45.2346C67.0999 41.2421 74.7171 39.0918 82.4971 39.0029C90.2771 38.9139 97.9415 40.8896 104.709 44.7283C111.477 48.5671 117.105 54.1318 121.021 60.855C124.937 67.5782 127 75.2195 127 83H165Z" fill="#5CB545" stroke="white"/>
<path d="M44.1836 155.231C56.6761 161.944 70.6963 165.303 84.8747 164.979C99.0532 164.654 112.905 160.658 125.078 153.381C137.25 146.104 147.328 135.793 154.325 123.458C161.322 111.122 165 97.1822 165 83H127C127 90.6099 125.027 98.0898 121.272 104.709C117.517 111.328 112.11 116.86 105.579 120.765C99.0469 124.67 91.6141 126.815 84.0061 126.989C76.3982 127.162 68.8752 125.36 62.1719 121.758L44.1836 155.231Z" fill="#DF3B3B" stroke="white"/>
</svg>
