<svg width="176" height="176" viewBox="0 0 176 176" fill="none" xmlns="http://www.w3.org/2000/svg">
<path d="M175 88C175 73.5175 171.384 59.264 164.481 46.5324C157.578 33.8008 147.606 22.9939 135.47 15.0918C123.333 7.18966 109.415 2.44237 94.9795 1.28046C80.5437 0.118558 66.0461 2.5788 52.8018 8.43807L70.4007 48.219C77.0229 45.2894 84.2717 44.0593 91.4896 44.6402C98.7075 45.2212 105.666 47.5948 111.735 51.5459C117.803 55.497 122.789 60.9004 126.241 67.2662C129.692 73.632 131.5 80.7587 131.5 88H175Z" fill="#DF3B3B" stroke="white"/>
<path d="M52.8021 8.43848C38.4747 14.7768 26.1248 24.8664 17.0563 37.6418C7.98785 50.4172 2.53738 65.4043 1.28047 81.0206C0.0235603 96.6369 3.00684 112.303 9.91529 126.364C16.8237 140.425 27.401 152.36 40.5302 160.909C53.6593 169.457 68.8531 174.301 84.5073 174.93C100.161 175.559 115.695 171.949 129.468 164.482C143.24 157.015 154.741 145.967 162.755 132.505C170.77 119.043 175 103.667 175 88.0004H131.5C131.5 95.8338 129.385 103.522 125.378 110.253C121.37 116.984 115.62 122.508 108.734 126.241C101.847 129.975 94.0807 131.78 86.2536 131.465C78.4266 131.151 70.8297 128.729 64.2651 124.455C57.7005 120.18 52.4119 114.213 48.9576 107.182C45.5034 100.152 44.0118 92.3186 44.6402 84.5105C45.2687 76.7024 47.9939 69.2088 52.5282 62.8211C57.0624 56.4334 63.2374 51.3886 70.4011 48.2194L52.8021 8.43848Z" fill="#5CB545" stroke="white"/>
</svg>
